<svg width="294" height="161" viewBox="0 0 294 161" fill="none" xmlns="http://www.w3.org/2000/svg">
<path d="M67.3379 159.75C52.6712 159.75 40.0046 156.917 29.3379 151.25C18.6712 145.583 9.58789 137 2.08789 125.5L24.3379 108.75C30.6712 117.083 37.1712 122.75 43.8379 125.75C50.6712 128.75 58.0046 130.25 65.8379 130.25C73.5046 130.25 79.5879 128.583 84.0879 125.25C88.7546 121.917 91.0879 117.5 91.0879 112C91.0879 105.833 89.0046 101.083 84.8379 97.75C80.8379 94.25 74.8379 92.5 66.8379 92.5H45.0879V66H67.8379C74.8379 66 80.0046 64.4167 83.3379 61.25C86.8379 58.0833 88.5879 53.75 88.5879 48.25C88.5879 42.5833 86.4212 38.25 82.0879 35.25C77.9212 32.0833 72.2546 30.5 65.0879 30.5C57.5879 30.5 50.7546 31.9167 44.5879 34.75C38.5879 37.5833 32.4212 43.0833 26.0879 51.25L4.33789 34.75C19.0046 12.25 39.7546 1 66.5879 1C83.5879 1 96.9212 5.16667 106.588 13.5C116.255 21.6667 121.088 32.8333 121.088 47C121.088 54 119.338 60.25 115.838 65.75C112.338 71.0833 107.505 75.3333 101.338 78.5C108.171 82.3333 113.588 87.4167 117.588 93.75C121.588 99.9167 123.588 106.833 123.588 114.5C123.588 123.5 121.255 131.417 116.588 138.25C112.088 145.083 105.588 150.417 97.0879 154.25C88.5879 157.917 78.6712 159.75 67.3379 159.75ZM149.607 1H210.607C227.607 1 242.191 4.25 254.357 10.75C266.691 17.25 276.024 26.4167 282.357 38.25C288.857 49.9167 292.107 63.4167 292.107 78.75C292.107 93.9167 288.774 107.417 282.107 119.25C275.441 131.083 265.941 140.333 253.607 147C241.441 153.667 227.107 157 210.607 157H149.607V1ZM210.357 124.75C225.024 124.75 236.441 120.75 244.607 112.75C252.774 104.75 256.857 93.4167 256.857 78.75C256.857 64.0833 252.857 52.8333 244.857 45C236.857 37.1667 225.441 33.25 210.607 33.25H184.357V124.75H210.357Z" stroke="#606060" stroke-width="2"/>
</svg>
