<svg width="40" height="40" viewBox="0 0 40 40" fill="none" xmlns="http://www.w3.org/2000/svg">
<g clip-path="url(#clip0)">
<path d="M6.69432 35.9465C5.9934 36.5766 5.5396 37.4356 5.41415 38.3697C5.34503 38.7517 5.44966 39.1446 5.6996 39.4416C5.95339 39.7464 6.32964 39.9225 6.72626 39.922H33.1959C33.5925 39.9225 33.9688 39.7464 34.2226 39.4416C34.4725 39.1446 34.5771 38.7517 34.508 38.3697C34.3825 37.4356 33.9288 36.5766 33.2278 35.9465C34.0869 35.3244 34.5966 34.329 34.5992 33.2684V6.65367C34.5966 5.59304 34.0869 4.5976 33.2278 3.97557C33.9288 3.34544 34.3825 2.48644 34.508 1.5523C34.5771 1.17033 34.4725 0.777409 34.2226 0.480396C33.9688 0.175612 33.5925 -0.000442406 33.1959 8.34932e-07H6.72626C6.32964 -0.000442406 5.95339 0.175612 5.6996 0.480396C5.44966 0.777409 5.34503 1.17033 5.41415 1.5523C5.5396 2.48644 5.9934 3.34544 6.69432 3.97557C5.83524 4.5976 5.32553 5.59304 5.323 6.65367V33.2684C5.32553 34.329 5.83524 35.3244 6.69432 35.9465ZM33.2019 38.5913C33.2002 38.592 33.1983 38.592 33.1966 38.5913H31.2723C31.2723 38.2238 30.9744 37.9259 30.607 37.9259C30.2395 37.9259 29.9416 38.2238 29.9416 38.5913H28.6108C28.6108 38.2238 28.313 37.9259 27.9455 37.9259C27.578 37.9259 27.2801 38.2238 27.2801 38.5913V38.5946H25.9494V38.5913C25.9494 38.2238 25.6515 37.9259 25.284 37.9259C24.9165 37.9259 24.6186 38.2238 24.6186 38.5913V38.596H23.2879V38.5913C23.2879 38.2238 22.99 37.9259 22.6225 37.9259C22.2551 37.9259 21.9572 38.2238 21.9572 38.5913V38.5979H20.6264V38.5913C20.6264 38.2238 20.3285 37.9259 19.9611 37.9259C19.5936 37.9259 19.2957 38.2238 19.2957 38.5913V38.5993H17.965V38.5913C17.965 38.2238 17.6671 37.9259 17.2996 37.9259C16.9321 37.9259 16.6342 38.2238 16.6342 38.5913V38.6006H15.3035V38.5913C15.3035 38.2238 15.0056 37.9259 14.6381 37.9259C14.2707 37.9259 13.9728 38.2238 13.9728 38.5913V38.6026H12.642V38.5913C12.642 38.2238 12.3441 37.9259 11.9767 37.9259C11.6092 37.9259 11.3113 38.2238 11.3113 38.5913V38.6039H9.98057V38.5913C9.98057 38.2238 9.68267 37.9259 9.3152 37.9259C8.94773 37.9259 8.64983 38.2238 8.64983 38.5913V38.6053H6.7236C6.96579 37.2719 7.61319 36.5952 8.64983 36.5952H31.2723C32.309 36.5952 32.9564 37.2719 33.2019 38.5913ZM6.72626 1.33074H8.64983C8.64983 1.69821 8.94773 1.9961 9.3152 1.9961C9.68267 1.9961 9.98057 1.69821 9.98057 1.33074H11.3113C11.3113 1.69821 11.6092 1.9961 11.9767 1.9961C12.3441 1.9961 12.642 1.69821 12.642 1.33074H13.9728C13.9728 1.69821 14.2707 1.9961 14.6381 1.9961C15.0056 1.9961 15.3035 1.69821 15.3035 1.33074H16.6342C16.6342 1.69821 16.9321 1.9961 17.2996 1.9961C17.6671 1.9961 17.965 1.69821 17.965 1.33074H19.2957C19.2957 1.69821 19.5936 1.9961 19.9611 1.9961C20.3285 1.9961 20.6264 1.69821 20.6264 1.33074H21.9572C21.9572 1.69821 22.2551 1.9961 22.6225 1.9961C22.99 1.9961 23.2879 1.69821 23.2879 1.33074H24.6186C24.6186 1.69821 24.9165 1.9961 25.284 1.9961C25.6515 1.9961 25.9494 1.69821 25.9494 1.33074H27.2801C27.2801 1.69821 27.578 1.9961 27.9455 1.9961C28.313 1.9961 28.6108 1.69821 28.6108 1.33074H29.9416C29.9416 1.69821 30.2395 1.9961 30.607 1.9961C30.9744 1.9961 31.2723 1.69821 31.2723 1.33074H33.1952C32.9504 2.65482 32.3043 3.32684 31.2723 3.32684H8.64983C7.61319 3.32684 6.96579 2.65016 6.72626 1.33074ZM6.65373 6.65367C6.65373 5.55126 7.54742 4.65757 8.64983 4.65757H31.2723C32.3747 4.65757 33.2684 5.55126 33.2684 6.65367V33.2684C33.2684 34.3708 32.3747 35.2645 31.2723 35.2645H8.64983C7.54742 35.2645 6.65373 34.3708 6.65373 33.2684V6.65367Z" fill="#4A90E2"/>
<path d="M19.9612 27.28C25.8407 27.28 30.6071 22.5137 30.6071 16.6342C30.6071 10.7546 25.8407 5.98828 19.9612 5.98828C14.0816 5.98828 9.31531 10.7546 9.31531 16.6342C9.32227 22.5108 14.0845 27.2731 19.9612 27.28ZM19.9612 7.31902C25.1058 7.31902 29.2763 11.4895 29.2763 16.6342C29.2763 21.7788 25.1058 25.9493 19.9612 25.9493C14.8166 25.9493 10.646 21.7788 10.646 16.6342C10.6515 11.4918 14.8189 7.32452 19.9612 7.31902Z" fill="#4A90E2"/>
<path d="M13.9555 20.87L14.6069 20.4934L14.5331 21.6472C14.5095 22.0137 14.7874 22.33 15.1539 22.3538H15.1978C15.549 22.3545 15.8403 22.0822 15.8632 21.7317L15.9962 19.693L19.2958 17.7867V21.6013L17.5958 22.7324C17.398 22.8643 17.2856 23.0918 17.301 23.329C17.3164 23.5662 17.4571 23.7773 17.6703 23.8826C17.8834 23.9879 18.1366 23.9715 18.3343 23.8396L19.2958 23.2002V23.9533C19.2958 24.3208 19.5937 24.6187 19.9612 24.6187C20.3286 24.6187 20.6265 24.3208 20.6265 23.9533V23.2002L21.588 23.8416C21.7858 23.9735 22.0389 23.9899 22.252 23.8846C22.4652 23.7793 22.606 23.5682 22.6213 23.331C22.6367 23.0937 22.5243 22.8663 22.3265 22.7344L20.6265 21.6013V17.7867L23.9301 19.695L24.0631 21.7337C24.086 22.0842 24.3773 22.3565 24.7285 22.3558H24.7724C25.1389 22.332 25.4168 22.0157 25.3932 21.6492L25.3154 20.4934L25.9668 20.87C26.1727 20.9908 26.4276 20.9919 26.6347 20.873C26.8417 20.7541 26.9692 20.5333 26.9686 20.2946C26.9681 20.0558 26.8397 19.8356 26.6321 19.7176L25.9807 19.341L27.0141 18.83C27.3435 18.667 27.4784 18.2679 27.3155 17.9384C27.1525 17.609 26.7533 17.474 26.4239 17.637L24.5928 18.5426L21.2919 16.6343L24.5954 14.7274L26.4265 15.6363C26.6405 15.7412 26.8942 15.724 27.092 15.5912C27.2899 15.4584 27.4019 15.2302 27.3858 14.9924C27.3697 14.7547 27.228 14.5435 27.0141 14.4386L25.9781 13.9263L26.6295 13.5497C26.837 13.4317 26.9654 13.2115 26.966 12.9727C26.9665 12.734 26.8391 12.5132 26.632 12.3943C26.425 12.2754 26.1701 12.2765 25.9641 12.3973L25.3127 12.7738L25.3866 11.6201C25.4103 11.2526 25.1316 10.9355 24.7641 10.9118C24.3966 10.8881 24.0795 11.1668 24.0558 11.5343L23.9228 13.573L20.6265 15.4819V11.6673L22.3265 10.5362C22.5243 10.4043 22.6367 10.1769 22.6213 9.93962C22.606 9.70238 22.4652 9.49135 22.252 9.38604C22.0389 9.28072 21.7858 9.29712 21.588 9.42905L20.6265 10.0685V9.31527C20.6265 8.9478 20.3286 8.6499 19.9612 8.6499C19.5937 8.6499 19.2958 8.9478 19.2958 9.31527V10.0685L18.3343 9.42705C18.0286 9.2231 17.6154 9.30562 17.4115 9.61136C17.2075 9.91709 17.29 10.3303 17.5958 10.5342L19.2958 11.6673V15.4819L15.9922 13.5736L15.8592 11.5349C15.8355 11.1675 15.5183 10.8888 15.1509 10.9125C14.7834 10.9362 14.5047 11.2533 14.5284 11.6208L14.6023 12.7745L13.9509 12.3979C13.7449 12.2772 13.49 12.276 13.283 12.395C13.0759 12.5139 12.9485 12.7346 12.949 12.9734C12.9495 13.2121 13.078 13.4323 13.2855 13.5503L13.9369 13.9269L12.9083 14.4386C12.5788 14.6016 12.4439 15.0008 12.6068 15.3302C12.7698 15.6596 13.169 15.7946 13.4984 15.6316L15.3295 14.726L18.6304 16.6343L15.3269 18.5413L13.4958 17.6357C13.2824 17.5307 13.0293 17.5476 12.8317 17.6799C12.6342 17.8122 12.5222 18.0398 12.538 18.277C12.5538 18.5143 12.6949 18.7251 12.9083 18.83L13.9442 19.3424L13.2928 19.719C13.0853 19.837 12.9569 20.0571 12.9563 20.2959C12.9558 20.5347 13.0833 20.7554 13.2903 20.8743C13.4973 20.9933 13.7522 20.9921 13.9582 20.8714L13.9555 20.87Z" fill="#4A90E2"/>
<path d="M11.3112 29.2759H10.6458C10.2784 29.2759 9.98047 29.5738 9.98047 29.9412C9.98047 30.3087 10.2784 30.6066 10.6458 30.6066H11.3112C11.6787 30.6066 11.9766 30.3087 11.9766 29.9412C11.9766 29.5738 11.6787 29.2759 11.3112 29.2759Z" fill="#4A90E2"/>
<path d="M29.2763 29.2759H28.6109C28.2435 29.2759 27.9456 29.5738 27.9456 29.9412C27.9456 30.3087 28.2435 30.6066 28.6109 30.6066H29.2763C29.6438 30.6066 29.9417 30.3087 29.9417 29.9412C29.9417 29.5738 29.6438 29.2759 29.2763 29.2759Z" fill="#4A90E2"/>
<path d="M25.9495 29.2759H13.9729C13.6054 29.2759 13.3075 29.5738 13.3075 29.9412C13.3075 30.3087 13.6054 30.6066 13.9729 30.6066H25.9495C26.3169 30.6066 26.6148 30.3087 26.6148 29.9412C26.6148 29.5738 26.3169 29.2759 25.9495 29.2759Z" fill="#4A90E2"/>
<path d="M11.3112 31.9375H10.6458C10.2784 31.9375 9.98047 32.2354 9.98047 32.6029C9.98047 32.9703 10.2784 33.2682 10.6458 33.2682H11.3112C11.6787 33.2682 11.9766 32.9703 11.9766 32.6029C11.9766 32.2354 11.6787 31.9375 11.3112 31.9375Z" fill="#4A90E2"/>
<path d="M29.2763 31.9375H28.6109C28.2435 31.9375 27.9456 32.2354 27.9456 32.6029C27.9456 32.9703 28.2435 33.2682 28.6109 33.2682H29.2763C29.6438 33.2682 29.9417 32.9703 29.9417 32.6029C29.9417 32.2354 29.6438 31.9375 29.2763 31.9375Z" fill="#4A90E2"/>
<path d="M25.9495 31.9375H13.9729C13.6054 31.9375 13.3075 32.2354 13.3075 32.6029C13.3075 32.9703 13.6054 33.2682 13.9729 33.2682H25.9495C26.3169 33.2682 26.6148 32.9703 26.6148 32.6029C26.6148 32.2354 26.3169 31.9375 25.9495 31.9375Z" fill="#4A90E2"/>
</g>
<defs>
<clipPath id="clip0">
<rect width="39.922" height="39.922" fill="white"/>
</clipPath>
</defs>
</svg>
