<svg width="40" height="40" viewBox="0 0 40 40" fill="none" xmlns="http://www.w3.org/2000/svg">
<g clip-path="url(#clip0)">
<path d="M11.9967 35.8594H11.3324C10.9658 35.8594 10.6685 36.1567 10.6685 36.5234C10.6685 36.8903 10.9658 37.1876 11.3324 37.1876H11.9967C12.3634 37.1876 12.6607 36.8903 12.6607 36.5234C12.6607 36.1567 12.3634 35.8594 11.9967 35.8594Z" fill="#4A90E2"/>
<path d="M13.989 36.5234C13.989 36.8903 14.2863 37.1876 14.6533 37.1876H28.6003C28.9669 37.1876 29.2645 36.8903 29.2645 36.5234C29.2645 36.1567 28.9669 35.8594 28.6003 35.8594H14.6533C14.2863 35.8594 13.989 36.1567 13.989 36.5234Z" fill="#4A90E2"/>
<path d="M27.0495 2.93114C26.5056 1.73269 25.516 0.793568 24.2908 0.31291C23.0592 -0.26321 21.6009 -0.0303294 20.6097 0.900583C20.459 1.04317 20.3215 1.19944 20.1996 1.36726L17.3364 5.30858H12.6608C11.5609 5.3098 10.6698 6.20119 10.6686 7.30114V8.42845L9.35063 10.4055C8.47627 11.714 8.0102 13.2527 8.01172 14.8263V36.5233C8.01415 38.3566 9.4996 39.842 11.3325 39.8442H19.7451C19.8208 39.842 19.8959 39.8271 19.9664 39.7995C20.037 39.8271 20.1121 39.842 20.1881 39.8442H28.6003C30.4333 39.842 31.919 38.3566 31.9212 36.5233V14.8263C31.9227 13.2527 31.4566 11.714 30.5826 10.4055L29.2646 8.42845V7.30114C29.2634 6.20119 28.372 5.3098 27.2721 5.30858H27.0556C27.3423 4.54154 27.3402 3.69667 27.0495 2.93114ZM21.274 2.14829C21.3479 2.04674 21.4309 1.95219 21.5221 1.86585C22.1131 1.30888 22.9845 1.16903 23.7205 1.51288C24.6228 1.86889 25.3646 2.54108 25.8079 3.4042C26.0466 4.0396 25.9575 4.75162 25.5695 5.30858H25.1573C25.236 5.09607 25.2774 4.8714 25.2795 4.6446C25.2795 3.54405 24.3875 2.65205 23.2873 2.65205C22.1867 2.65205 21.2947 3.54405 21.2947 4.6446C21.2971 4.8714 21.3385 5.09607 21.4172 5.30858H18.9784L21.274 2.14829ZM22.623 4.6446C22.623 4.27765 22.9203 3.98032 23.2873 3.98032C23.6539 3.98032 23.9512 4.27765 23.9512 4.6446C23.9512 5.01125 23.6539 5.30858 23.2873 5.30858C22.9206 5.30828 22.6236 5.01095 22.623 4.6446ZM30.5929 32.5385H17.3099C16.9433 32.5379 16.6462 32.2409 16.6456 31.8743V16.599C16.6462 16.2324 16.9433 15.9353 17.3099 15.935H30.5929V32.5385ZM30.5768 14.6068H17.3099C16.21 14.608 15.3186 15.4991 15.3173 16.599V31.8743C15.3186 32.9742 16.21 33.8656 17.3099 33.8668H30.5929V36.5233C30.5917 37.6233 29.7003 38.5147 28.6003 38.5159H20.1881C20.1121 38.5177 20.037 38.5329 19.9664 38.5606C19.8959 38.5329 19.8208 38.5177 19.7451 38.5159H11.3325C10.2326 38.5147 9.34121 37.6233 9.34029 36.5233V14.8263C9.33877 13.5147 9.72701 12.2327 10.4561 11.1421L11.6879 9.29339H28.2452L29.4771 11.1421C30.1603 12.1716 30.5412 13.3718 30.5768 14.6068ZM27.9361 7.30114V7.96512H11.9968V7.30114C11.9971 6.93449 12.2942 6.63746 12.6608 6.63685H27.2721C27.6387 6.63746 27.9357 6.93449 27.9361 7.30114Z" fill="#4A90E2"/>
<path d="M11.3324 29.2174C11.6994 29.2174 11.9967 28.9201 11.9967 28.5534V15.2704C11.9967 14.9038 11.6994 14.6064 11.3324 14.6064C10.9658 14.6064 10.6685 14.9038 10.6685 15.2704V28.5534C10.6685 28.9201 10.9658 29.2174 11.3324 29.2174Z" fill="#4A90E2"/>
<path d="M11.3324 33.2027C11.6994 33.2027 11.9967 32.9051 11.9967 32.5385V31.2102C11.9967 30.8432 11.6994 30.5459 11.3324 30.5459C10.9658 30.5459 10.6685 30.8432 10.6685 31.2102V32.5385C10.6685 32.9051 10.9658 33.2027 11.3324 33.2027Z" fill="#4A90E2"/>
</g>
<defs>
<clipPath id="clip0">
<rect width="39.8441" height="39.8441" fill="white"/>
</clipPath>
</defs>
</svg>
