<?xml version="1.0" encoding="UTF-8"?>
<!DOCTYPE svg PUBLIC "-//W3C//DTD SVG 1.1//EN" "http://www.w3.org/Graphics/SVG/1.1/DTD/svg11.dtd">
<!-- Creator: CorelDRAW 2019 (64 Bit) -->
<svg xmlns="http://www.w3.org/2000/svg" xml:space="preserve" width="130mm" height="110mm" version="1.1" style="shape-rendering:geometricPrecision; text-rendering:geometricPrecision; image-rendering:optimizeQuality; fill-rule:evenodd; clip-rule:evenodd"
viewBox="0 0 13000 11000"
 xmlns:xlink="http://www.w3.org/1999/xlink"
 xmlns:xodm="http://www.corel.com/coreldraw/odm/2003">
 <defs>
  <style type="text/css">
   <![CDATA[
    .fil0 {fill:#4A90E2}
   ]]>
  </style>
 </defs>
 <g id="Camada_x0020_1">
  <metadata id="CorelCorpID_0Corel-Layer"/>
  <path class="fil0" d="M11562.09 2430.44l-4994.43 -2411.1c-44.28,-21.36 -95.84,-21.36 -140.1,0l-4994.45 2411.1c-55.69,26.88 -91.07,83.27 -91.07,145.11l0 5855.54c0,61.83 35.38,118.23 91.07,145.11l4994.43 2411.11c22.13,10.68 46.11,16.03 70.06,16.03 23.95,0 47.91,-5.35 70.06,-16.03l4994.43 -2411.11c55.69,-26.88 91.07,-83.27 91.07,-145.11l0 -5855.52c0,-61.88 -35.4,-118.23 -91.07,-145.13zm-5064.49 -2087.06l4623.8 2232.16 -1340.35 647.07c-8.49,-6.47 -17.45,-12.44 -27.29,-17.19l-4592.38 -2216.97 1336.22 -645.07zm-1700.12 827.26l4617.08 2228.92 -945.63 456.52 -4615.18 -2228.02 943.73 -457.42zm4725.1 2534.6l0 1687.51 -883.29 426.42 0 -1687.51 883.29 -426.42zm1808.32 4624.75l-4672.17 2255.47 0 -5497.68 1114.46 -538.01c80.14,-38.69 113.74,-135.01 75.04,-215.17 -38.69,-80.12 -135.01,-113.76 -215.17,-75.04l-1135.46 548.17 -446.79 -215.7c-80.16,-38.74 -176.47,-5.09 -215.17,75.04 -38.69,80.14 -5.09,176.47 75.04,215.17l425.78 205.54 0.01 5497.68 -4672.17 -2255.52 0 -5497.68 3557.81 1717.57c22.58,10.91 46.45,16.07 69.93,16.07 59.9,0 117.43,-33.56 145.21,-91.12 38.69,-80.14 5.09,-176.47 -75.04,-215.17l-3488.42 -1684.07 1600.69 -772.75 4840.31 2336.71c0.71,0.99 1.5,1.87 2.23,2.84l0 1933.57c0,55.45 28.51,106.99 75.47,136.49 26.08,16.37 55.84,24.64 85.68,24.64 23.89,0 47.85,-5.31 70.04,-16.03l1205.55 -581.99c55.69,-26.88 91.07,-83.25 91.07,-145.11l0 -1944.23 1486.05 -717.41 0.02 5497.72z"/>
  <path class="fil0" d="M2994.06 7705.03l-732.94 -353.83c-80.18,-38.74 -176.47,-5.09 -215.17,75.04 -38.69,80.14 -5.09,176.47 75.04,215.17l732.94 353.83c22.58,10.91 46.45,16.07 69.93,16.07 59.9,0 117.43,-33.56 145.21,-91.12 38.73,-80.15 5.12,-176.45 -75.01,-215.16z"/>
  <path class="fil0" d="M3668.6 7265.95l-1406.47 -678.99c-80.16,-38.69 -176.47,-5.09 -215.17,75.07 -38.67,80.14 -5.07,176.47 75.07,215.17l1406.47 678.99c22.58,10.89 46.45,16.07 69.93,16.07 59.9,0 117.43,-33.56 145.21,-91.12 38.7,-80.18 5.1,-176.52 -75.04,-215.19z"/>
 </g>
</svg>
