<svg width="40" height="40" viewBox="0 0 40 40" fill="none" xmlns="http://www.w3.org/2000/svg">
<g id="icon_roda 1" clip-path="url(#clip0_3912_11486)">
<path id="Vector" fill-rule="evenodd" clip-rule="evenodd" d="M8.81435 36.3138C12.0755 38.492 15.9094 39.6542 19.8311 39.6533C25.0865 39.6475 30.1249 37.5572 33.8411 33.841C37.5572 30.1249 39.6475 25.0865 39.6533 19.8311C39.6542 15.9094 38.492 12.0755 36.3138 8.81436C34.1356 5.5532 31.0391 3.01126 27.4161 1.51008C23.793 0.00889121 19.8062 -0.384119 15.9598 0.380756C12.1134 1.14563 8.58017 3.03403 5.80711 5.80712C3.03403 8.58018 1.14563 12.1134 0.380756 15.9598C-0.384119 19.8062 0.00889026 23.793 1.51007 27.416C3.01126 31.0391 5.5532 34.1356 8.81435 36.3138ZM9.2444 6.90645C12.2298 4.45907 15.9707 3.12112 19.8311 3.12001C22.0436 3.12085 24.234 3.56044 26.2754 4.41334C28.3169 5.26623 30.169 6.51552 31.7244 8.08889C34.4367 10.836 36.1139 14.4376 36.471 18.2814C36.828 22.1252 35.8429 25.9741 33.6831 29.1738C31.5233 32.3734 28.322 34.7264 24.6236 35.8327C20.9251 36.9389 16.9576 36.7302 13.3956 35.2421C9.83355 33.7539 6.8968 31.0781 5.08457 27.6695C3.27232 24.2609 2.69643 20.3299 3.45477 16.5448C4.21313 12.7596 6.25893 9.35383 9.2444 6.90645ZM25.2612 12.5008L21.7294 16.0327C21.3984 15.8599 21.0418 15.7297 20.6667 15.6493V10.7095C22.3818 10.8756 23.9578 11.5172 25.2612 12.5008ZM23.3611 17.5436C23.5762 17.8879 23.7431 18.2654 23.8523 18.6667H28.8218C28.6104 16.9276 27.9089 15.3396 26.8597 14.045L23.3611 17.5436ZM23.8523 20.8889C23.7431 21.2902 23.5762 21.6677 23.3611 22.012L26.8596 25.5106C27.9089 24.216 28.6104 22.628 28.8218 20.8889H23.8523ZM21.7293 23.5229C21.3984 23.6957 21.0418 23.8259 20.6667 23.9063V28.8461C22.3818 28.68 23.9578 28.0384 25.2612 27.0548L21.7293 23.5229ZM18.4444 28.792V23.7852C18.1256 23.6791 17.8236 23.5361 17.5436 23.3611L14.045 26.8597C15.2843 27.864 16.7923 28.5497 18.4444 28.792ZM12.5008 25.2612L16.0327 21.7294C15.8944 21.4644 15.7833 21.1831 15.7033 20.8889H10.7337C10.9318 22.5179 11.5598 24.0143 12.5008 25.2612ZM10.7337 18.6667H15.7033C15.7833 18.3725 15.8944 18.0912 16.0326 17.8263L12.5008 14.2944C11.5598 15.5413 10.9318 17.0376 10.7337 18.6667ZM14.045 12.6959L17.5436 16.1944C17.8236 16.0195 18.1256 15.8764 18.4444 15.7704V10.7635C16.7923 11.0058 15.2842 11.6915 14.045 12.6959ZM31.5556 19.7778C31.5556 26.2824 26.2825 31.5556 19.7778 31.5556C13.2731 31.5556 8 26.2824 8 19.7778C8 13.2731 13.2731 8 19.7778 8C26.2825 8 31.5556 13.2731 31.5556 19.7778ZM19.7778 21.7778C20.8824 21.7778 21.7778 20.8824 21.7778 19.7778C21.7778 18.6732 20.8824 17.7778 19.7778 17.7778C18.6732 17.7778 17.7778 18.6732 17.7778 19.7778C17.7778 20.8824 18.6732 21.7778 19.7778 21.7778Z" fill="#009FE1"/>
</g>
<defs>
<clipPath id="clip0_3912_11486">
<rect width="40" height="40" fill="white"/>
</clipPath>
</defs>
</svg>
