<svg width="40" height="40" viewBox="0 0 40 40" fill="none" xmlns="http://www.w3.org/2000/svg">
<g clip-path="url(#clip0)">
<path d="M35.7529 15.9761C34.6199 14.0163 33.0425 12.2687 31.153 10.8725C32.7404 9.41638 33.342 7.68336 33.3708 7.59915C33.4985 7.22251 33.321 6.81152 32.9599 6.64433C32.5996 6.47775 32.1701 6.61089 31.9655 6.95166C31.8898 7.07629 31.3475 7.90192 30.1389 7.90192C29.7194 7.90192 29.219 7.80221 28.6308 7.53927C25.6463 6.20537 22.4869 6.71668 21.9133 6.82551H21.4628C20.7904 5.21012 18.6908 0.634222 16.3312 0.199218C15.4816 0.0417533 14.7529 0.316557 14.3337 0.953104C13.823 1.72918 13.7771 3.22084 14.6784 4.57115C15.0122 5.07059 15.4293 5.77979 15.9056 6.65588C14.5717 6.5884 12.5998 6.68871 10.6977 7.53927C8.4145 8.55884 7.46454 7.12068 7.36392 6.95318C7.16329 6.61545 6.74136 6.48018 6.38114 6.63886C6.02152 6.79693 5.83639 7.19911 5.95009 7.57574C5.97805 7.66846 6.57812 9.61093 8.17496 11.2686C6.41397 12.6733 4.94936 14.3978 3.9073 16.3014C2.65731 18.587 2.02319 21.0508 2.02319 23.6244C2.02319 28.0121 3.89392 32.1336 7.29158 35.2284C10.6692 38.3057 15.1545 39.9998 19.9219 39.9998C24.6893 39.9998 29.1746 38.3057 32.5522 35.2284C35.9499 32.1336 37.8206 28.0121 37.8206 23.6244C37.8206 20.9596 37.1053 18.3153 35.7529 15.9761ZM11.3328 8.9604C13.4753 8.00224 15.8005 8.17034 16.7367 8.29498L16.8206 8.48709V8.48861L17.683 10.4654C17.8542 10.857 18.308 11.0375 18.7008 10.87C19.0938 10.7035 19.279 10.2514 19.1157 9.85686C18.9017 9.33947 18.5272 8.48649 18.2512 7.8624C18.1484 7.63046 18.0667 7.44594 18.0223 7.34806C18.0177 7.33712 18.0123 7.32617 18.0068 7.31614C17.9967 7.28878 17.9849 7.26233 17.9718 7.2365C17.1708 5.68009 16.4978 4.49241 15.9725 3.70661C15.4767 2.96488 15.4417 2.10187 15.6339 1.80913C15.6612 1.76809 15.7257 1.6699 16.0488 1.72918C17.1118 1.92586 18.9795 4.68636 20.2113 7.88338C20.3274 8.18372 20.6153 8.38192 20.9375 8.38192H21.9902C22.0449 8.38192 22.1 8.37584 22.1532 8.36489C22.1687 8.36185 22.9624 8.19922 24.0993 8.19922C25.2058 8.19922 26.6385 8.35334 27.9958 8.9604C28.9217 9.37413 29.7178 9.49268 30.3808 9.45286C30.1024 9.74012 29.7811 10.021 29.412 10.273C27.7982 11.3759 25.7754 11.5938 23.3998 10.9214C23.1095 10.8387 22.7973 10.9324 22.5997 11.1603C22.4021 11.3883 22.3547 11.7106 22.4766 11.9866C22.5958 12.2529 22.8098 12.4644 23.135 12.7861C23.7321 13.3749 24.7158 14.3476 25.2222 15.9627C24.44 15.6311 23.6986 15.5861 23.1663 15.5533C22.9125 15.5377 22.6502 15.5213 22.5374 15.4809L22.4611 15.4545C20.7071 14.8349 20.4457 14.2732 20.4457 13.9929C20.4457 13.5634 20.09 13.2147 19.6605 13.2147C19.2309 13.2147 18.8823 13.5634 18.8823 13.9929C18.8823 14.6614 16.9124 15.8764 16.1078 16.1634C16.0154 16.1971 15.9181 16.2281 15.8169 16.2615C15.3664 16.4078 14.8247 16.5829 14.1911 16.9884C14.7335 15.3617 15.6892 14.2397 16.2798 13.5479C16.5622 13.2156 16.7492 12.997 16.851 12.7697C16.9732 12.4933 16.9258 12.1711 16.7282 11.9431C16.578 11.7704 16.3625 11.6747 16.1397 11.6747C16.0689 11.6747 15.9974 11.6841 15.9275 11.7042C13.5336 12.3821 11.4987 12.0538 9.8785 10.7278H9.87759C9.38878 10.3268 8.98569 9.87631 8.65647 9.43188C9.38665 9.53068 10.2761 9.4328 11.3328 8.9604C13.4753 8.00224 10.2761 9.4328 11.3328 8.9604ZM19.9219 38.4434C10.9111 38.4434 3.5796 31.7958 3.5796 23.6244C3.5796 19.2251 5.68623 15.1277 9.38026 12.3003C10.474 13.0563 11.7553 13.4904 13.0801 13.5804C13.4722 13.6068 13.8662 13.6047 14.258 13.5773C13.3804 14.769 12.3593 16.5783 12.238 19.053C12.2216 19.3862 12.4192 19.692 12.729 19.8148C12.8217 19.8516 12.919 19.8692 13.0153 19.8692C13.1415 19.8692 13.2652 19.8392 13.3765 19.7808C13.4014 19.7674 13.4248 19.7525 13.4479 19.7379C13.5063 19.6981 13.5601 19.6507 13.6075 19.5954C14.7617 18.2405 15.5779 17.9751 16.2978 17.7416C16.413 17.7043 16.5218 17.6684 16.6325 17.6295C16.6589 17.6194 18.554 16.8567 19.6596 15.666C20.3998 16.3767 21.4713 16.7555 21.9428 16.9221L22.013 16.947C22.3343 17.0613 22.6915 17.0832 23.0706 17.1066C23.9078 17.158 24.8574 17.2164 25.7204 18.2295C25.936 18.4834 26.2892 18.5712 26.5989 18.449C26.9087 18.3259 27.1063 18.0201 27.0899 17.6872C26.9795 15.4295 26.1132 13.8762 25.2924 12.8387C26.5226 12.925 27.7742 12.7715 28.9187 12.2991C29.2348 12.1687 29.5434 12.0182 29.8379 11.8443C31.7296 13.1572 33.3024 14.8465 34.4059 16.7549C35.6213 18.8576 36.2642 21.2326 36.2642 23.6241C36.2642 31.7958 28.9326 38.4434 19.9219 38.4434Z" fill="#4A90E2"/>
<path d="M19.9221 36.8803C11.9407 36.8803 5.44751 30.9337 5.44751 23.6244C5.44751 23.1946 5.79588 22.8462 6.22571 22.8462C6.65555 22.8462 7.00392 23.1946 7.00392 23.6244C7.00392 30.0756 12.7991 35.3239 19.9221 35.3239C20.3519 35.3239 20.7003 35.6723 20.7003 36.1021C20.7003 36.5319 20.3519 36.8803 19.9221 36.8803Z" fill="#4A90E2"/>
<path d="M23.1386 36.5383C22.7088 36.5383 22.3601 36.19 22.3601 35.7601C22.3601 35.3303 22.7082 34.9819 23.1377 34.9819H23.1386C23.5684 34.9819 23.9168 35.3303 23.9168 35.7601C23.9168 36.19 23.5684 36.5383 23.1386 36.5383Z" fill="#4A90E2"/>
</g>
<defs>
<clipPath id="clip0">
<rect width="39.8441" height="39.8441" fill="white" transform="translate(0 0.155762)"/>
</clipPath>
</defs>
</svg>
