<svg width="41" height="40" viewBox="0 0 41 40" fill="none" xmlns="http://www.w3.org/2000/svg">
<g clip-path="url(#clip0)">
<path d="M7.56247 15.6347C7.8792 15.6913 8.18384 15.4802 8.24045 15.1612C8.40193 14.252 8.70197 13.3805 9.13237 12.5708L10.4458 10.1C10.7161 9.59169 10.9413 9.0536 11.1154 8.50069C11.2123 8.19262 11.0411 7.86428 10.7331 7.76728C10.425 7.67052 10.0967 7.84159 9.99966 8.14958C9.84715 8.63426 9.6498 9.10576 9.41308 9.55098L8.09955 12.0218C7.61175 12.9395 7.27164 13.927 7.08879 14.9567C7.03242 15.2747 7.24442 15.5783 7.56247 15.6347Z" fill="#4A90E2"/>
<path d="M7.49346 40.0002H19.794C21.1763 40.0002 22.301 38.8755 22.301 37.493V16.6914C22.301 14.7511 21.8196 12.82 20.9089 11.1067L19.5955 8.63586C19.1955 7.88358 18.9507 7.05263 18.8762 6.20499C19.1034 6.12475 19.2663 5.90814 19.2663 5.65341C19.2663 5.3897 19.0918 5.16686 18.852 5.09388V4.09294C19.1006 3.9366 19.2663 3.6598 19.2663 3.34503V0.960932C19.2663 0.474148 18.8703 0.078125 18.3835 0.078125H8.90391C8.41713 0.078125 8.0211 0.474148 8.0211 0.960932V3.34503C8.0211 3.6598 8.1868 3.9366 8.43545 4.09294V5.09388C8.19561 5.16686 8.0211 5.3897 8.0211 5.65341C8.0211 5.90814 8.18399 6.12475 8.4112 6.20499C8.33674 7.05263 8.0919 7.88366 7.69198 8.63586L6.37853 11.1067C5.46773 12.82 4.98633 14.7512 4.98633 16.6915V37.4931C4.98633 38.8755 6.11101 40.0002 7.49346 40.0002ZM19.794 38.8306H7.49346C6.81284 38.8306 6.24933 38.3195 6.16645 37.661H21.121C21.0381 38.3195 20.4746 38.8306 19.794 38.8306ZM9.19069 1.24772H18.0967V3.05824H16.7092C16.3862 3.05824 16.1244 3.32007 16.1244 3.64304C16.1244 3.966 16.3862 4.22783 16.7092 4.22783H17.6824V5.06869H9.60504V4.22783H13.9801C14.3031 4.22783 14.5649 3.966 14.5649 3.64304C14.5649 3.32007 14.3031 3.05824 13.9801 3.05824H9.19062V1.24772H9.19069ZM7.41128 11.6557L8.72473 9.18495C9.20894 8.27399 9.50126 7.26565 9.58204 6.23828H17.7054C17.7862 7.26565 18.0784 8.27399 18.5627 9.18495L19.8762 11.6557C20.6974 13.2005 21.1315 14.9419 21.1315 16.6915V17.6922H9.77549C9.45253 17.6922 9.19069 17.954 9.19069 18.277C9.19069 18.5999 9.45253 18.8617 9.77549 18.8617H21.1315V36.4914H6.15592V18.8617H7.04644C7.36941 18.8617 7.63124 18.5999 7.63124 18.277C7.63124 17.954 7.36941 17.6922 7.04644 17.6922H6.15592V16.6915C6.15592 14.9419 6.58999 13.2006 7.41128 11.6557Z" fill="#4A90E2"/>
<path d="M24.1799 39.1315C24.1964 39.6186 24.5911 40.0001 25.0785 40.0001H35.0269C35.5142 40.0001 35.909 39.6186 35.9255 39.1315C36.0383 35.8198 36.574 20.0869 36.6233 18.6412C36.6406 18.1338 36.2327 17.7114 35.7247 17.7114H24.3807C23.8731 17.7114 23.4648 18.1334 23.4821 18.6412C23.5992 22.08 23.8456 29.3163 24.1799 39.1315ZM25.3399 38.8305L25.2957 37.5319H34.8097L34.7654 38.8305H25.3399ZM35.4448 18.881L35.2649 24.1648H34.3182C33.9952 24.1648 33.7334 24.4266 33.7334 24.7496C33.7334 25.0725 33.9952 25.3343 34.3182 25.3343H35.2251L34.8496 36.3623H25.2558L24.8803 25.3343H31.5891C31.9121 25.3343 32.1739 25.0725 32.1739 24.7496C32.1739 24.4266 31.9121 24.1648 31.5891 24.1648H24.8405L24.6606 18.881H35.4448Z" fill="#4A90E2"/>
<path d="M25.4879 20.2657L25.5749 22.8204C25.5857 23.1364 25.8452 23.3853 26.159 23.3853C26.4907 23.3853 26.755 23.1107 26.7438 22.7806L26.6568 20.226C26.6458 19.9032 26.3749 19.651 26.0524 19.6614C25.7296 19.6724 25.4769 19.9429 25.4879 20.2657Z" fill="#4A90E2"/>
</g>
<defs>
<clipPath id="clip0">
<rect width="39.922" height="39.922" fill="white" transform="translate(0.843994 0.078125)"/>
</clipPath>
</defs>
</svg>
