<svg width="40" height="40" viewBox="0 0 40 40" fill="none" xmlns="http://www.w3.org/2000/svg">
<g id="icon_alerts 1" clip-path="url(#clip0_3912_11501)">
<path id="Vector" d="M19.8311 39.6533C15.9094 39.6542 12.0755 38.492 8.81436 36.3138C5.5532 34.1356 3.01126 31.0391 1.51008 27.4161C0.00889015 23.793 -0.384119 19.8062 0.380756 15.9598C1.14563 12.1134 3.03403 8.58018 5.80711 5.80711C8.58018 3.03403 12.1134 1.14563 15.9598 0.380756C19.8062 -0.384119 23.793 0.00889132 27.416 1.51008C31.0391 3.01126 34.1356 5.5532 36.3138 8.81436C38.492 12.0755 39.6542 15.9094 39.6533 19.8311C39.6475 25.0865 37.5572 30.1249 33.8411 33.8411C30.1249 37.5572 25.0865 39.6475 19.8311 39.6533ZM19.8311 3.12001C15.9707 3.12112 12.2298 4.45907 9.24436 6.90645C6.25893 9.35382 4.21312 12.7596 3.45478 16.5448C2.69643 20.3299 3.27232 24.2609 5.08458 27.6695C6.8968 31.0781 9.83351 33.7539 13.3956 35.2421C16.9576 36.7303 20.925 36.9389 24.6235 35.8327C28.322 34.7264 31.5233 32.3734 33.6831 29.1738C35.8429 25.9741 36.828 22.1252 36.471 18.2814C36.1139 14.4376 34.4367 10.836 31.7244 8.08889C30.169 6.51551 28.3169 5.26622 26.2754 4.41334C24.234 3.56044 22.0436 3.12085 19.8311 3.12001ZM21.3867 9.75556H18.2756V22.6667H21.3867V9.75556ZM21.3867 25.5956H18.2756V29.1511H21.3867V25.5956Z" fill="#009FE1"/>
</g>
<defs>
<clipPath id="clip0_3912_11501">
<rect width="40" height="40" fill="white"/>
</clipPath>
</defs>
</svg>
