<?xml version="1.0" encoding="iso-8859-1"?>
<!-- Generator: Adobe Illustrator 19.0.0, SVG Export Plug-In . SVG Version: 6.00 Build 0)  -->
<svg xmlns="http://www.w3.org/2000/svg" xmlns:xlink="http://www.w3.org/1999/xlink" version="1.1" id="Capa_1" x="0px" y="0px" viewBox="0 0 497.112 497.112" style="enable-background:new 0 0 497.112 497.112;" xml:space="preserve" width="512px" height="512px">
<g>
	<g>
		<g>
			<path d="M400.556,254.888l-96,52.36v137.504l96,52.36l96-52.36V307.248L400.556,254.888z M480.556,435.248l-80,43.64l-80-43.64     V316.752l80-43.64l80,43.64V435.248z" fill="#4a90e2"/>
			<path d="M336.556,376c0,35.288,28.712,64,64,64c35.288,0,64-28.712,64-64c0-35.288-28.712-64-64-64     C365.268,312,336.556,340.712,336.556,376z M448.556,376c0,26.472-21.528,48-48,48s-48-21.528-48-48s21.528-48,48-48     S448.556,349.528,448.556,376z" fill="#4a90e2"/>
			<path d="M112.556,272c-61.76,0-112,50.24-112,112s50.24,112,112,112s112-50.24,112-112S174.316,272,112.556,272z M112.556,480     c-52.936,0-96-43.064-96-96c0-52.936,43.064-96,96-96c52.936,0,96,43.064,96,96C208.556,436.936,165.492,480,112.556,480z" fill="#4a90e2"/>
			<path d="M112.556,320c-35.288,0-64,28.712-64,64c0,35.288,28.712,64,64,64s64-28.712,64-64     C176.556,348.712,147.844,320,112.556,320z M112.556,432c-26.472,0-48-21.528-48-48s21.528-48,48-48s48,21.528,48,48     S139.028,432,112.556,432z" fill="#4a90e2"/>
			<path d="M376.556,144c0-79.4-64.6-144-144-144s-144,64.6-144,144s64.6,144,144,144S376.556,223.4,376.556,144z M232.556,272     c-70.576,0-128-57.424-128-128s57.424-128,128-128s128,57.424,128,128S303.132,272,232.556,272z" fill="#4a90e2"/>
			<path d="M232.556,64c-44.112,0-80,35.888-80,80s35.888,80,80,80c20.72,0,40.376-7.896,55.344-22.224l-11.064-11.56     C264.86,201.688,249.132,208,232.556,208c-35.288,0-64-28.712-64-64c0-35.288,28.712-64,64-64c35.288,0,64,28.712,64,64     c0,12.728-3.728,25.024-10.776,35.544l13.296,8.904c8.816-13.168,13.48-28.544,13.48-44.448     C312.556,99.888,276.668,64,232.556,64z" fill="#4a90e2"/>
			<path d="M232.556,96c-26.472,0-48,21.528-48,48s21.528,48,48,48s48-21.528,48-48S259.028,96,232.556,96z M232.556,176     c-17.648,0-32-14.352-32-32s14.352-32,32-32s32,14.352,32,32S250.204,176,232.556,176z" fill="#4a90e2"/>
		</g>
	</g>
</g>
<g>
</g>
<g>
</g>
<g>
</g>
<g>
</g>
<g>
</g>
<g>
</g>
<g>
</g>
<g>
</g>
<g>
</g>
<g>
</g>
<g>
</g>
<g>
</g>
<g>
</g>
<g>
</g>
<g>
</g>
</svg>
