<?xml version="1.0" encoding="UTF-8"?>
<svg xmlns="http://www.w3.org/2000/svg" id="Layer_1" data-name="Layer 1" viewBox="0 0 512 512" width="512px" height="512px"><path d="M57.153,318h4.3a6,6,0,0,0,0-12h-4.3a6,6,0,0,0,0,12Z" fill="#4a90e2"/><path d="M80.448,318h88a6,6,0,0,0,0-12h-88a6,6,0,1,0,0,12Z" fill="#4a90e2"/><path d="M482,276H469V208.075a63.878,63.878,0,0,0-18.919-45.342c-1.22-1.22-2.647-2.405-3.962-3.524A45.861,45.861,0,0,1,430,124.179V43.4a6.412,6.412,0,0,0-6.064-6.4H385.189A6.519,6.519,0,0,0,379,43.4v81.5a45.43,45.43,0,0,1-16.347,34.373A64.167,64.167,0,0,0,340,208.075V276H320V208.075a63.683,63.683,0,0,0-18.716-45.342c-1.22-1.22-2.661-2.405-3.976-3.524A46.041,46.041,0,0,1,281,124.179V43.4c0-3.313-2.313-6.4-5.627-6.4H236.627C233.313,37,231,40.089,231,43.4v81.5a45.43,45.43,0,0,1-16.347,34.373A64.167,64.167,0,0,0,192,208.075V276H172V208.075a63.954,63.954,0,0,0-19-45.342c-1.221-1.22-2.522-2.406-3.836-3.524A45.91,45.91,0,0,1,133,124.179V43.4a6.519,6.519,0,0,0-6.189-6.4H88.064A6.412,6.412,0,0,0,82,43.4v81.5a45.43,45.43,0,0,1-16.347,34.373A64.167,64.167,0,0,0,43,208.075V276H30a6,6,0,0,0-6,6V469a6,6,0,0,0,6,6H482a6,6,0,0,0,6-6V282A6,6,0,0,0,482,276ZM391,49h27V71H391ZM352,208.075A52.189,52.189,0,0,1,370.439,168.4,57.4,57.4,0,0,0,391,124.9V83h27v41.179a57.845,57.845,0,0,0,20.344,44.17c1.07.911,2.258,1.876,3.249,2.867A51.952,51.952,0,0,1,457,208.075V218H404.562c-3.313,0-5.562,3.122-5.562,6.435V276H352ZM457,230v46H411V230ZM243,49h26V71H243ZM204,208.075A52.189,52.189,0,0,1,222.439,168.4,57.4,57.4,0,0,0,243,124.9V83h26v41.179a58.056,58.056,0,0,0,20.562,44.17c1.07.911,2.15,1.876,3.141,2.867A51.846,51.846,0,0,1,308,208.075V218H256a6,6,0,0,0-6,6v9a6,6,0,0,0,12,0v-3h46v46H262v-9a6,6,0,0,0-12,0v9H204ZM94,49h27V71H94ZM55,208.075A52.189,52.189,0,0,1,73.439,168.4,57.4,57.4,0,0,0,94,124.9V83h27v41.179a57.789,57.789,0,0,0,20.281,44.171c1.07.909,2.29,1.874,3.281,2.866A51.982,51.982,0,0,1,160,208.075V218H107.438A6.773,6.773,0,0,0,101,224.435V276H55ZM160,230v46H113V230ZM476,463H36V415H476Zm0-121H120a6,6,0,0,0,0,12H476v49H36V354H86a6,6,0,0,0,0-12H36V288H476Z" fill="#4a90e2"/></svg>
