<?xml version="1.0" encoding="utf-8"?>
<!-- Generator: Adobe Illustrator 24.1.2, SVG Export Plug-In . SVG Version: 6.00 Build 0)  -->
<svg version="1.1" id="Camada_1" xmlns="http://www.w3.org/2000/svg" xmlns:xlink="http://www.w3.org/1999/xlink" x="0px" y="0px"
	 viewBox="0 0 132 53.38" style="enable-background:new 0 0 132 53.38;" xml:space="preserve">
<style type="text/css">
	.st0{fill-rule:evenodd;clip-rule:evenodd;fill:#FFFFFF;}
	.st1{fill:#FFFFFF;}
</style>
<polygon class="st0" points="113.69,38.85 99.73,52.81 93.8,52.8 93.8,38.85 "/>
<polygon class="st0" points="125.68,38.85 125.68,52.81 107.97,52.81 121.93,38.85 "/>
<polygon class="st0" points="121.93,38.85 107.97,52.81 104.01,52.81 117.96,38.85 "/>
<path class="st1" d="M78.2,38.94h11.66v3.43h-3.92V52.8h-3.83V42.37H78.2V38.94z M64.56,38.94h3.83v4.84h4.19v-4.84h3.85V52.8h-3.85
	v-5.62h-4.19v5.62h-3.83V38.94z M57.8,46.26h5.01v2.98H57.8V46.26z M47.04,38.94h3.83V49.4h5.99v3.41h-9.82V38.94z M34.43,38.94
	h10.26v2.96h-6.41v2.21h5.94v2.83h-5.94v2.73h6.6v3.14H34.43V38.94z M27.75,38.94h3.85V52.8h-3.85V38.94z M17.93,44.57h1.62
	c0.17,0,0.51-0.06,1.02-0.19c0.25-0.05,0.46-0.2,0.62-0.44c0.16-0.24,0.24-0.5,0.24-0.81c0-0.45-0.13-0.79-0.38-1.03
	c-0.25-0.24-0.73-0.36-1.43-0.36h-1.69V44.57z M14.08,52.8V38.94h6.39c1.18,0,2.09,0.11,2.71,0.34c0.63,0.23,1.13,0.65,1.52,1.26
	c0.38,0.62,0.57,1.37,0.57,2.25c0,0.77-0.15,1.43-0.44,1.99c-0.29,0.56-0.7,1.01-1.21,1.36c-0.33,0.22-0.78,0.4-1.35,0.55
	c0.46,0.17,0.79,0.34,1,0.51c0.14,0.11,0.34,0.36,0.61,0.73c0.27,0.37,0.44,0.66,0.53,0.86l1.86,4.01h-4.33l-2.05-4.23
	c-0.26-0.55-0.49-0.9-0.69-1.07c-0.28-0.21-0.59-0.32-0.94-0.32h-0.34v5.62H14.08z M0.56,38.94h11.66v3.43H8.3V52.8H4.48V42.37H0.56
	V38.94z"/>
<path class="st0" d="M123.71,2.62l-0.03,27.37L2.42,29.87L2.45,2.5L123.71,2.62z M125.67,31.98L0.5,31.86L0.53,0.58L125.7,0.7
	L125.67,31.98z"/>
<path class="st0" d="M32.35,18.59l1.99-5.83l2.01,5.83L32.35,18.59z M36.6,8.43l-4.5,0l-6.24,15.64l4.53,0l0.88-2.41l6.19,0.01
	l0.78,2.41l4.66,0L36.6,8.43z M45.41,24.08l0.02-15.64l5.86,0.01l5.86,10.08l0.01-10.07l3.94,0L61.09,24.1l-6.06-0.01l-5.46-10.11
	l-0.01,10.1L45.41,24.08z M102.18,24.14l0.02-15.58l5.87,0.01l5.76,10.01l0.01-10.01l4.04,0.01l-0.01,15.58l-6.03-0.01l-5.56-10.08
	l-0.01,10.07L102.18,24.14z M76.02,16.55l-0.03,0.46l-0.06,0.46l-0.1,0.42l-0.13,0.43l-0.13,0.39L75.43,19l-0.16,0.26l-0.2,0.26
	l-0.19,0.23l-0.2,0.19l-0.26,0.2l-0.23,0.2l-0.29,0.13l-0.16,0.06l-0.06,0.06l-0.03,0l-0.26,0.1l-0.36,0.1l-0.36,0.1l-0.39,0.07
	l-0.39,0.03l-0.36,0l-2.41,0l0.01-9.32l2.41,0l0.36,0.03l0.39,0l0.39,0.1l0.36,0.07l0.36,0.13l0.36,0.16l0.29,0.13l0.29,0.16
	l0.26,0.2l0.26,0.23l0.2,0.23l0.19,0.26l0.16,0.3l0.16,0.29l0.13,0.42l0.13,0.42l0.1,0.46l0.06,0.42l0.03,0.46L76.02,16.55z
	 M80.2,15.42l-0.07-0.62l-0.06-0.59l-0.1-0.42l-0.13-0.42l-0.13-0.42l-0.19-0.39l-0.17-0.39l-0.23-0.36l-0.26-0.36l-0.3-0.33
	l-0.26-0.33l-0.36-0.29l-0.33-0.26l-0.36-0.26l-0.36-0.2l-0.39-0.2l-0.39-0.19l-0.42-0.1l-0.65-0.2l-0.72-0.19l-0.68-0.1l-0.69-0.1
	l-0.72-0.1l-0.72-0.03l-0.68-0.03l-5.77-0.01L65.06,24.1l5.77,0l0.68,0l0.72-0.03l0.72-0.06l0.68-0.13l0.68-0.1l0.72-0.19l0.65-0.16
	l0.42-0.16l0.39-0.13l0.39-0.23l0.36-0.2l0.36-0.26l0.32-0.26l0.36-0.29l0.26-0.33l0.29-0.33l0.26-0.36l0.23-0.39l0.16-0.36
	l0.2-0.39l0.13-0.42l0.13-0.42l0.1-0.42l0.07-0.59l0.07-0.62l0.03-0.62v-0.59L80.2,15.42z M94.21,16.6l0,0.59l-0.06,0.55l-0.1,0.55
	l-0.1,0.55l-0.1,0.33l-0.13,0.29l-0.16,0.29l-0.17,0.29l-0.19,0.26l-0.23,0.26l-0.19,0.16l-0.2,0.2l-0.26,0.13l-0.23,0.13
	l-0.29,0.03l-0.32,0.1l-0.36,0.03l-0.32,0l-0.36-0.03l-0.33-0.1l-0.26-0.04l-0.26-0.13l-0.23-0.13l-0.23-0.2l-0.2-0.16l-0.23-0.26
	l-0.2-0.26l-0.16-0.29l-0.16-0.29l-0.1-0.29l-0.1-0.33l-0.13-0.55l-0.1-0.55l-0.07-0.55l-0.03-0.59l0-0.55l0.03-0.55l0.07-0.59
	l0.1-0.55l0.13-0.55l0.1-0.33l0.1-0.29l0.16-0.32l0.16-0.29l0.19-0.23l0.23-0.26l0.19-0.2l0.23-0.16l0.23-0.13l0.26-0.1l0.26-0.1
	l0.32-0.06l0.36-0.03l0.33,0l0.36,0.03l0.32,0.06l0.29,0.1l0.23,0.1l0.26,0.13l0.2,0.16l0.19,0.19l0.23,0.26l0.19,0.23l0.17,0.29
	l0.16,0.33l0.13,0.29l0.1,0.32l0.1,0.56l0.1,0.55l0.07,0.59l0,0.55L94.21,16.6z M98.87,15.63l-0.03-0.72l-0.06-0.46L98.67,14
	l-0.1-0.45l-0.13-0.46l-0.16-0.42l-0.2-0.42l-0.23-0.42l-0.23-0.39l-0.29-0.39l-0.26-0.33l-0.33-0.36l-0.36-0.33l-0.32-0.29
	l-0.39-0.26l-0.39-0.23L94.9,9.01l-0.42-0.19l-0.43-0.17l-0.46-0.13l-0.42-0.1l-0.46-0.1l-0.59-0.06l-0.58-0.03l-0.59,0l-0.58,0
	l-0.59,0.03L89.2,8.32l-0.46,0.1l-0.46,0.1l-0.42,0.13l-0.43,0.16L87.01,9l-0.39,0.23l-0.39,0.23l-0.39,0.26l-0.36,0.29l-0.29,0.32
	l-0.36,0.36l-0.29,0.32l-0.23,0.39l-0.26,0.39l-0.23,0.42l-0.19,0.42l-0.17,0.42l-0.13,0.46l-0.1,0.46l-0.1,0.46l-0.03,0.46
	l-0.07,0.71l0,0.72l0,0.68l0.06,0.72l0.03,0.46l0.1,0.46l0.1,0.45l0.13,0.45l0.16,0.43l0.2,0.42l0.22,0.42l0.26,0.39l0.22,0.36
	l0.3,0.36l0.36,0.36l0.29,0.33l0.36,0.3l0.39,0.26l0.39,0.23L87,23.67l0.42,0.16L87.84,24l0.42,0.13l0.46,0.13l0.45,0.07l0.58,0.07
	l0.59,0.03l0.59,0.03l0.59-0.03l0.59-0.03l0.59-0.06l0.45-0.06l0.42-0.13L94.03,24l0.42-0.16l0.43-0.16l0.39-0.26l0.39-0.23
	l0.39-0.26l0.33-0.29l0.36-0.33l0.33-0.36l0.26-0.36l0.29-0.36l0.23-0.39l0.23-0.42L98.27,20l0.17-0.43l0.13-0.45l0.1-0.46l0.1-0.46
	l0.06-0.46l0.04-0.72l0-0.69L98.87,15.63z M18.83,14.02l-0.07,0.26l-0.06,0.23l-0.1,0.23l-0.13,0.2l-0.13,0.19l-0.2,0.2l-0.2,0.13
	l-0.16,0.13l-0.2,0.1l-0.23,0.03l-0.2,0.07h-0.23l-4.6,0l0-4.01l4.59,0.01l0.23,0l0.2,0.06l0.23,0.07l0.2,0.06l0.16,0.13l0.2,0.17
	l0.19,0.16l0.13,0.23l0.13,0.16l0.1,0.23l0.06,0.23l0.06,0.26l0.03,0.26L18.83,14.02z M19.06,18.35l0.36-0.13l0.39-0.19l0.36-0.19
	l0.32-0.23l0.36-0.26l0.29-0.29l0.26-0.29l0.26-0.33l0.23-0.32l0.2-0.39l0.2-0.36l0.13-0.39l0.1-0.39l0.07-0.39l0.07-0.42l0-0.42
	l-0.03-0.39l-0.06-0.42l-0.1-0.39l-0.1-0.39l-0.16-0.39l-0.16-0.39l-0.23-0.33l-0.23-0.36l-0.26-0.33l-0.29-0.29l-0.33-0.26
	L20.4,9.16l-0.29-0.19l-0.33-0.16l-0.36-0.13L19.1,8.54l-0.39-0.07l-0.36-0.03l-0.39-0.04L8.35,8.4L8.33,24.05l4.01,0l0.01-7.4
	l6.15,7.4l5.02,0.01L19.06,18.35z M121.79,4.61l-0.02,23.46L4.42,27.95L4.44,4.49L121.79,4.61z"/>
<path class="st0" d="M129.58,2.5l-0.39,0l0-0.52l0.29,0c0.19,0,0.42,0,0.42,0.23C129.9,2.43,129.8,2.5,129.58,2.5 M130.39,2.24
	c0-0.46-0.33-0.62-0.88-0.62l-0.78,0l0,2.12l0.46,0l0-0.88l0.23,0l0.46,0.88l0.55,0l-0.55-0.91C130.16,2.79,130.39,2.66,130.39,2.24
	z"/>
<path class="st0" d="M129.51,4.22l0-0.03c-0.78,0.03-1.43-0.59-1.43-1.5c0-0.91,0.65-1.53,1.43-1.53c0.75,0,1.43,0.62,1.43,1.53
	C130.95,3.61,130.26,4.22,129.51,4.22 M129.51,0.7c-1.04,0-1.99,0.71-1.98,1.98c0,1.24,0.94,1.99,1.98,1.99
	c1.04,0,1.99-0.75,1.99-1.99C131.5,1.42,130.56,0.71,129.51,0.7z"/>
</svg>
