<svg width="30" height="40" viewBox="0 0 30 40" fill="none" xmlns="http://www.w3.org/2000/svg">
<path d="M1.69432 35.9465C0.9934 36.5766 0.539605 37.4356 0.414153 38.3697C0.345028 38.7517 0.44966 39.1446 0.699596 39.4416C0.953391 39.7464 1.32964 39.9225 1.72626 39.922H28.1959C28.5925 39.9225 28.9688 39.7464 29.2226 39.4416C29.4725 39.1446 29.5771 38.7517 29.508 38.3697C29.3825 37.4356 28.9288 36.5766 28.2278 35.9465C29.0869 35.3244 29.5966 34.329 29.5992 33.2684V6.65367C29.5966 5.59304 29.0869 4.5976 28.2278 3.97557C28.9288 3.34544 29.3825 2.48644 29.508 1.5523C29.5771 1.17033 29.4725 0.777409 29.2226 0.480396C28.9688 0.175612 28.5925 -0.000442406 28.1959 8.34932e-07H1.72626C1.32964 -0.000442406 0.953391 0.175612 0.699596 0.480396C0.44966 0.777409 0.345028 1.17033 0.414153 1.5523C0.539605 2.48644 0.9934 3.34544 1.69432 3.97557C0.835239 4.5976 0.325526 5.59304 0.322998 6.65367V33.2684C0.325526 34.329 0.835239 35.3244 1.69432 35.9465ZM28.2019 38.5913C28.2002 38.592 28.1983 38.592 28.1966 38.5913H26.2723C26.2723 38.2238 25.9744 37.9259 25.607 37.9259C25.2395 37.9259 24.9416 38.2238 24.9416 38.5913H23.6108C23.6108 38.2238 23.313 37.9259 22.9455 37.9259C22.578 37.9259 22.2801 38.2238 22.2801 38.5913V38.5946H20.9494V38.5913C20.9494 38.2238 20.6515 37.9259 20.284 37.9259C19.9165 37.9259 19.6186 38.2238 19.6186 38.5913V38.596H18.2879V38.5913C18.2879 38.2238 17.99 37.9259 17.6225 37.9259C17.2551 37.9259 16.9572 38.2238 16.9572 38.5913V38.5979H15.6264V38.5913C15.6264 38.2238 15.3285 37.9259 14.9611 37.9259C14.5936 37.9259 14.2957 38.2238 14.2957 38.5913V38.5993H12.965V38.5913C12.965 38.2238 12.6671 37.9259 12.2996 37.9259C11.9321 37.9259 11.6342 38.2238 11.6342 38.5913V38.6006H10.3035V38.5913C10.3035 38.2238 10.0056 37.9259 9.63814 37.9259C9.27067 37.9259 8.97277 38.2238 8.97277 38.5913V38.6026H7.64204V38.5913C7.64204 38.2238 7.34414 37.9259 6.97667 37.9259C6.6092 37.9259 6.3113 38.2238 6.3113 38.5913V38.6039H4.98057V38.5913C4.98057 38.2238 4.68267 37.9259 4.3152 37.9259C3.94773 37.9259 3.64983 38.2238 3.64983 38.5913V38.6053H1.7236C1.96579 37.2719 2.61319 36.5952 3.64983 36.5952H26.2723C27.309 36.5952 27.9564 37.2719 28.2019 38.5913ZM1.72626 1.33074H3.64983C3.64983 1.69821 3.94773 1.9961 4.3152 1.9961C4.68267 1.9961 4.98057 1.69821 4.98057 1.33074H6.3113C6.3113 1.69821 6.6092 1.9961 6.97667 1.9961C7.34414 1.9961 7.64204 1.69821 7.64204 1.33074H8.97277C8.97277 1.69821 9.27067 1.9961 9.63814 1.9961C10.0056 1.9961 10.3035 1.69821 10.3035 1.33074H11.6342C11.6342 1.69821 11.9321 1.9961 12.2996 1.9961C12.6671 1.9961 12.965 1.69821 12.965 1.33074H14.2957C14.2957 1.69821 14.5936 1.9961 14.9611 1.9961C15.3285 1.9961 15.6264 1.69821 15.6264 1.33074H16.9572C16.9572 1.69821 17.2551 1.9961 17.6225 1.9961C17.99 1.9961 18.2879 1.69821 18.2879 1.33074H19.6186C19.6186 1.69821 19.9165 1.9961 20.284 1.9961C20.6515 1.9961 20.9494 1.69821 20.9494 1.33074H22.2801C22.2801 1.69821 22.578 1.9961 22.9455 1.9961C23.313 1.9961 23.6108 1.69821 23.6108 1.33074H24.9416C24.9416 1.69821 25.2395 1.9961 25.607 1.9961C25.9744 1.9961 26.2723 1.69821 26.2723 1.33074H28.1952C27.9504 2.65482 27.3043 3.32684 26.2723 3.32684H3.64983C2.61319 3.32684 1.96579 2.65016 1.72626 1.33074ZM1.65373 6.65367C1.65373 5.55126 2.54742 4.65757 3.64983 4.65757H26.2723C27.3747 4.65757 28.2684 5.55126 28.2684 6.65367V33.2684C28.2684 34.3708 27.3747 35.2645 26.2723 35.2645H3.64983C2.54742 35.2645 1.65373 34.3708 1.65373 33.2684V6.65367Z" fill="#4A90E2"/>
<path d="M14.9612 27.28C20.8407 27.28 25.6071 22.5137 25.6071 16.6342C25.6071 10.7546 20.8407 5.98828 14.9612 5.98828C9.08163 5.98828 4.31531 10.7546 4.31531 16.6342C4.32227 22.5108 9.08452 27.2731 14.9612 27.28ZM14.9612 7.31902C20.1058 7.31902 24.2763 11.4895 24.2763 16.6342C24.2763 21.7788 20.1058 25.9493 14.9612 25.9493C9.81657 25.9493 5.64604 21.7788 5.64604 16.6342C5.65154 11.4918 9.81885 7.32452 14.9612 7.31902Z" fill="#4A90E2"/>
<path d="M8.95554 20.87L9.60694 20.4934L9.53308 21.6472C9.50954 22.0137 9.78739 22.33 10.1539 22.3538H10.1978C10.549 22.3545 10.8403 22.0822 10.8632 21.7317L10.9962 19.693L14.2958 17.7867V21.6013L12.5958 22.7324C12.398 22.8643 12.2856 23.0918 12.301 23.329C12.3164 23.5662 12.4571 23.7773 12.6703 23.8826C12.8834 23.9879 13.1366 23.9715 13.3343 23.8396L14.2958 23.2002V23.9533C14.2958 24.3208 14.5937 24.6187 14.9612 24.6187C15.3286 24.6187 15.6265 24.3208 15.6265 23.9533V23.2002L16.588 23.8416C16.7858 23.9735 17.0389 23.9899 17.252 23.8846C17.4652 23.7793 17.606 23.5682 17.6213 23.331C17.6367 23.0937 17.5243 22.8663 17.3265 22.7344L15.6265 21.6013V17.7867L18.9301 19.695L19.0631 21.7337C19.086 22.0842 19.3773 22.3565 19.7285 22.3558H19.7724C20.1389 22.332 20.4168 22.0157 20.3932 21.6492L20.3154 20.4934L20.9668 20.87C21.1727 20.9908 21.4276 20.9919 21.6347 20.873C21.8417 20.7541 21.9692 20.5333 21.9686 20.2946C21.9681 20.0558 21.8397 19.8356 21.6321 19.7176L20.9807 19.341L22.0141 18.83C22.3435 18.667 22.4784 18.2679 22.3155 17.9384C22.1525 17.609 21.7533 17.474 21.4239 17.637L19.5928 18.5426L16.2919 16.6343L19.5954 14.7274L21.4265 15.6363C21.6405 15.7412 21.8942 15.724 22.092 15.5912C22.2899 15.4584 22.4019 15.2302 22.3858 14.9924C22.3697 14.7547 22.228 14.5435 22.0141 14.4386L20.9781 13.9263L21.6295 13.5497C21.837 13.4317 21.9654 13.2115 21.966 12.9727C21.9665 12.734 21.8391 12.5132 21.632 12.3943C21.425 12.2754 21.1701 12.2765 20.9641 12.3973L20.3127 12.7738L20.3866 11.6201C20.4103 11.2526 20.1316 10.9355 19.7641 10.9118C19.3966 10.8881 19.0795 11.1668 19.0558 11.5343L18.9228 13.573L15.6265 15.4819V11.6673L17.3265 10.5362C17.5243 10.4043 17.6367 10.1769 17.6213 9.93962C17.606 9.70238 17.4652 9.49135 17.252 9.38604C17.0389 9.28072 16.7858 9.29712 16.588 9.42905L15.6265 10.0685V9.31527C15.6265 8.9478 15.3286 8.6499 14.9612 8.6499C14.5937 8.6499 14.2958 8.9478 14.2958 9.31527V10.0685L13.3343 9.42705C13.0286 9.2231 12.6154 9.30562 12.4115 9.61136C12.2075 9.91709 12.29 10.3303 12.5958 10.5342L14.2958 11.6673V15.4819L10.9922 13.5736L10.8592 11.5349C10.8355 11.1675 10.5183 10.8888 10.1509 10.9125C9.7834 10.9362 9.50472 11.2533 9.52842 11.6208L9.60228 12.7745L8.95089 12.3979C8.74491 12.2772 8.49002 12.276 8.28298 12.395C8.07594 12.5139 7.94849 12.7346 7.94901 12.9734C7.94954 13.2121 8.07796 13.4323 8.28552 13.5503L8.93691 13.9269L7.90825 14.4386C7.57881 14.6016 7.44387 15.0008 7.60684 15.3302C7.76982 15.6596 8.169 15.7946 8.49844 15.6316L10.3295 14.726L13.6304 16.6343L10.3269 18.5413L8.49577 17.6357C8.28243 17.5307 8.02929 17.5476 7.83173 17.6799C7.63417 17.8122 7.52219 18.0398 7.53797 18.277C7.55376 18.5143 7.69491 18.7251 7.90825 18.83L8.94423 19.3424L8.29284 19.719C8.08527 19.837 7.95686 20.0571 7.95633 20.2959C7.95581 20.5347 8.08326 20.7554 8.2903 20.8743C8.49734 20.9933 8.75223 20.9921 8.9582 20.8714L8.95554 20.87Z" fill="#4A90E2"/>
<path d="M6.3112 29.2759H5.64583C5.27836 29.2759 4.98047 29.5738 4.98047 29.9412C4.98047 30.3087 5.27836 30.6066 5.64583 30.6066H6.3112C6.67867 30.6066 6.97657 30.3087 6.97657 29.9412C6.97657 29.5738 6.67867 29.2759 6.3112 29.2759Z" fill="#4A90E2"/>
<path d="M24.2763 29.2759H23.6109C23.2435 29.2759 22.9456 29.5738 22.9456 29.9412C22.9456 30.3087 23.2435 30.6066 23.6109 30.6066H24.2763C24.6438 30.6066 24.9417 30.3087 24.9417 29.9412C24.9417 29.5738 24.6438 29.2759 24.2763 29.2759Z" fill="#4A90E2"/>
<path d="M20.9495 29.2759H8.97286C8.60539 29.2759 8.3075 29.5738 8.3075 29.9412C8.3075 30.3087 8.60539 30.6066 8.97286 30.6066H20.9495C21.3169 30.6066 21.6148 30.3087 21.6148 29.9412C21.6148 29.5738 21.3169 29.2759 20.9495 29.2759Z" fill="#4A90E2"/>
<path d="M6.3112 31.9375H5.64583C5.27836 31.9375 4.98047 32.2354 4.98047 32.6029C4.98047 32.9703 5.27836 33.2682 5.64583 33.2682H6.3112C6.67867 33.2682 6.97657 32.9703 6.97657 32.6029C6.97657 32.2354 6.67867 31.9375 6.3112 31.9375Z" fill="#4A90E2"/>
<path d="M24.2763 31.9375H23.6109C23.2435 31.9375 22.9456 32.2354 22.9456 32.6029C22.9456 32.9703 23.2435 33.2682 23.6109 33.2682H24.2763C24.6438 33.2682 24.9417 32.9703 24.9417 32.6029C24.9417 32.2354 24.6438 31.9375 24.2763 31.9375Z" fill="#4A90E2"/>
<path d="M20.9495 31.9375H8.97286C8.60539 31.9375 8.3075 32.2354 8.3075 32.6029C8.3075 32.9703 8.60539 33.2682 8.97286 33.2682H20.9495C21.3169 33.2682 21.6148 32.9703 21.6148 32.6029C21.6148 32.2354 21.3169 31.9375 20.9495 31.9375Z" fill="#4A90E2"/>
</svg>
