<svg width="40" height="40" viewBox="0 0 40 40" fill="none" xmlns="http://www.w3.org/2000/svg">
<g clip-path="url(#clip0)">
<path d="M33.7672 22.8479C33.6408 22.7048 33.4591 22.623 33.2682 22.623H6.65353C6.46258 22.623 6.2809 22.7049 6.15521 22.8479C6.02882 22.991 5.96956 23.1813 5.9935 23.3709L7.9896 39.3397C8.03084 39.673 8.31427 39.9225 8.64964 39.9225H31.2721C31.6074 39.9225 31.8909 39.673 31.9328 39.3397L33.9289 23.3709C33.9522 23.1813 33.8937 22.991 33.7672 22.8479ZM30.6846 38.5919H9.23716L7.40737 23.9537H32.5143L30.6846 38.5919Z" fill="#4A90E2"/>
<path d="M34.5992 19.9614H5.32306C4.9558 19.9614 4.65771 20.2595 4.65771 20.6268V23.2882C4.65771 23.6555 4.9558 23.9535 5.32306 23.9535H34.5992C34.9665 23.9535 35.2646 23.6555 35.2646 23.2882V20.6268C35.2646 20.2595 34.9665 19.9614 34.5992 19.9614ZM33.9339 22.6229H5.98848V21.2922H33.9339V22.6229Z" fill="#4A90E2"/>
<path d="M35.9299 15.9692H3.99225C3.62499 15.9692 3.3269 16.2673 3.3269 16.6346V20.6268C3.3269 20.994 3.62499 21.2921 3.99225 21.2921H35.9299C36.2971 21.2921 36.5952 20.994 36.5952 20.6268V16.6346C36.5952 16.2673 36.2971 15.9692 35.9299 15.9692ZM35.2644 19.9614H4.65759V17.3H35.2644V19.9614Z" fill="#4A90E2"/>
<path d="M11.3115 30.6069H9.98077C9.61352 30.6069 9.31543 30.905 9.31543 31.2723C9.31543 31.6395 9.61352 31.9376 9.98077 31.9376H11.3115C11.6788 31.9376 11.9769 31.6395 11.9769 31.2723C11.9769 30.905 11.6789 30.6069 11.3115 30.6069Z" fill="#4A90E2"/>
<path d="M15.3035 30.6069H13.9727C13.6055 30.6069 13.3074 30.905 13.3074 31.2723C13.3074 31.6395 13.6055 31.9376 13.9727 31.9376H15.3035C15.6707 31.9376 15.9688 31.6395 15.9688 31.2723C15.9688 30.905 15.6708 30.6069 15.3035 30.6069Z" fill="#4A90E2"/>
<path d="M33.7128 10.163C33.8612 9.75717 33.8439 9.39919 33.7793 9.12574C33.5531 8.16964 32.5557 7.49026 31.7746 7.0944C32.2729 6.47093 32.5464 5.76231 32.5896 4.97853C32.7254 2.53798 30.5063 0.289719 30.4118 0.195216C30.2215 0.00426101 29.9348 -0.0522692 29.6866 0.0508107C29.4384 0.153969 29.2761 0.396776 29.2761 0.665626C29.2761 1.09744 29.1277 1.4328 28.809 1.72153C27.598 2.81869 24.4615 2.77346 23.2878 2.66173C16.9701 2.66173 15.2628 4.34773 14.805 5.3305C10.2192 5.47288 9.04958 7.57479 8.75149 8.66929C7.33893 8.76707 6.26104 9.24551 5.54244 10.0939C4.46384 11.3667 4.61355 13.0195 4.65753 13.3575C4.69815 15.7082 7.56388 17.168 7.68692 17.2299C7.77878 17.2758 7.88123 17.2998 7.98431 17.2998H31.9375C35.0953 17.2998 35.9297 14.6882 35.9297 13.3076C35.9298 11.3965 34.7821 10.507 33.7128 10.163ZM31.9376 15.9689H8.15406C7.67164 15.6935 5.98829 14.6349 5.98829 13.3075C5.98829 13.2709 5.98564 13.2343 5.97901 13.1984C5.97698 13.1851 5.78338 11.8684 6.55788 10.9541C7.10478 10.308 8.03297 9.98071 9.31515 9.98071C9.6824 9.98071 9.98049 9.68262 9.98049 9.31537C9.98049 9.28878 10.0411 6.65393 15.3035 6.65393C15.6707 6.65393 15.9675 6.39381 15.9675 6.02648C16.0387 5.46095 17.4939 3.99249 23.222 3.98843C23.6884 4.03498 27.8363 4.39561 29.7013 2.70828C29.9143 2.51529 30.0913 2.3011 30.2303 2.0675C30.7446 2.79943 31.3202 3.86469 31.261 4.90859C31.219 5.63779 30.8697 6.25666 30.191 6.79958C30.0007 6.95194 29.9095 7.19615 29.9522 7.43568C29.9948 7.67451 30.1651 7.87218 30.396 7.94999C31.1579 8.20613 32.3488 8.85424 32.4846 9.43179C32.5032 9.5103 32.5591 9.74914 32.1326 10.1756C31.9437 10.3646 31.8878 10.6487 31.9889 10.8969C32.09 11.1451 32.3322 11.3087 32.5998 11.3114C32.9338 11.3154 34.5992 11.4291 34.5992 13.3075C34.5991 13.416 34.5691 15.9689 31.9376 15.9689Z" fill="#4A90E2"/>
<path d="M12.8029 10.6661C10.5606 10.1051 9.92849 9.04854 9.90456 9.00729C9.73754 8.68659 9.34362 8.55684 9.01699 8.71988C8.68834 8.88425 8.55524 9.28409 8.7196 9.61282C8.8021 9.77719 9.60522 11.2376 12.4802 11.9569C12.5348 11.9709 12.5887 11.9769 12.6426 11.9769C12.9407 11.9769 13.2115 11.7752 13.2873 11.4732C13.3757 11.1165 13.1595 10.7552 12.8029 10.6661Z" fill="#4A90E2"/>
<path d="M18.6306 7.31931C17.0237 7.31931 15.868 5.63463 15.856 5.61795C15.6524 5.31323 15.2392 5.23074 14.9344 5.43495C14.629 5.63853 14.5465 6.05241 14.7501 6.35783C14.8126 6.45101 16.305 8.64999 18.6305 8.64999C18.9978 8.64999 19.2959 8.35191 19.2959 7.98465C19.2959 7.6174 18.9978 7.31931 18.6306 7.31931Z" fill="#4A90E2"/>
<path d="M31.0774 6.84895C30.8172 6.58876 30.3967 6.58876 30.1365 6.84895C30.1252 6.86026 28.9808 7.9847 27.2801 7.9847C26.9128 7.9847 26.6147 8.28279 26.6147 8.65004C26.6147 9.01729 26.9128 9.31538 27.2801 9.31538C29.5257 9.31538 31.0148 7.85223 31.0774 7.78969C31.3376 7.52966 31.3376 7.10915 31.0774 6.84895Z" fill="#4A90E2"/>
<path d="M33.0728 10.1756C32.8126 9.91544 32.392 9.91544 32.1319 10.1756C31.7361 10.5714 30.9316 10.964 29.7393 11.3426C29.3892 11.4544 29.1956 11.8283 29.3067 12.1783C29.3973 12.4617 29.6587 12.6427 29.9408 12.6427C30.008 12.6427 30.0759 12.6321 30.1418 12.6107C31.5782 12.1543 32.5098 11.6799 33.0727 11.1163C33.3329 10.8562 33.3329 10.4357 33.0728 10.1756Z" fill="#4A90E2"/>
<path d="M33.2684 26.8396C33.142 26.6965 32.9603 26.6147 32.7694 26.6147H27.2801C26.9128 26.6147 26.6147 26.9128 26.6147 27.2801V35.2645C26.6147 35.6317 26.9128 35.9298 27.2801 35.9298H31.7713C32.1067 35.9298 32.3901 35.6803 32.4321 35.347L33.4301 27.3626C33.4534 27.173 33.3949 26.9827 33.2684 26.8396ZM31.1839 34.5992H27.9455V27.9455H32.0155L31.1839 34.5992Z" fill="#4A90E2"/>
<path d="M17.2994 26.6147H7.15256C6.96161 26.6147 6.77993 26.6966 6.65354 26.8396C6.52777 26.9827 6.46859 27.173 6.49253 27.3626L7.49058 35.347C7.53182 35.6803 7.81525 35.9298 8.15062 35.9298H17.2994C17.6666 35.9298 17.9647 35.6317 17.9647 35.2645V27.2801C17.9648 26.9128 17.6667 26.6147 17.2994 26.6147ZM16.634 34.5992H8.73814L7.90641 27.9455H16.634V34.5992Z" fill="#4A90E2"/>
</g>
<defs>
<clipPath id="clip0">
<rect width="39.9222" height="39.9222" fill="white"/>
</clipPath>
</defs>
</svg>
