<?xml version="1.0"?>
<svg xmlns="http://www.w3.org/2000/svg" id="Layer_3" enable-background="new 0 0 64 64" height="512px" viewBox="0 0 64 64" width="512px"><g><path d="m9 43c-4.411 0-8 3.589-8 8s3.589 8 8 8 8-3.589 8-8-3.589-8-8-8zm0 14c-3.309 0-6-2.691-6-6s2.691-6 6-6 6 2.691 6 6-2.691 6-6 6z" fill="#4a90e2"/><path d="m49 39c-3.86 0-7 3.14-7 7s3.14 7 7 7 7-3.14 7-7-3.14-7-7-7zm0 12c-2.757 0-5-2.243-5-5s2.243-5 5-5 5 2.243 5 5-2.243 5-5 5z" fill="#4a90e2"/><circle cx="49" cy="46" r="2" fill="#4a90e2"/><path d="m9 47c-2.206 0-4 1.794-4 4s1.794 4 4 4 4-1.794 4-4-1.794-4-4-4zm0 6c-1.103 0-2-.897-2-2s.897-2 2-2 2 .897 2 2-.897 2-2 2z" fill="#4a90e2"/><path d="m63 47v-2h-1.051c-.085-1.104-.307-2.169-.651-3.179l1.095-.469-.787-1.839-1.094.469c-.458-.873-1.014-1.686-1.651-2.429l.846-.846-1.414-1.414-.846.846c-.82-.704-1.73-1.302-2.708-1.786l.445-1.111-1.856-.743-.439 1.096c-.922-.29-1.891-.468-2.888-.545v-1.05h-2v1.051c-1.104.085-2.169.307-3.179.651l-.47-1.096-1.838.788.469 1.094c-.873.459-1.686 1.014-2.429 1.651l-.846-.846-1.414 1.414.846.846c-.704.82-1.302 1.73-1.786 2.708l-1.111-.445-.743 1.856 1.096.439c-.29.922-.468 1.891-.545 2.888h-1.051v2h1.051c.085 1.104.307 2.169.651 3.179l-1.095.469.787 1.839 1.094-.469c.458.873 1.014 1.686 1.651 2.429l-.846.846 1.414 1.414.846-.846c.82.704 1.73 1.302 2.708 1.786l-.445 1.111 1.856.743.439-1.096c.922.29 1.891.468 2.888.544v1.052h2v-1.051c1.104-.085 2.169-.307 3.179-.651l.469 1.095 1.839-.787-.469-1.094c.873-.458 1.686-1.014 2.429-1.651l.846.846 1.414-1.414-.846-.846c.704-.82 1.302-1.73 1.786-2.708l1.111.445.743-1.856-1.096-.439c.29-.922.468-1.891.544-2.888h1.052zm-14 10c-6.065 0-11-4.935-11-11s4.935-11 11-11 11 4.935 11 11-4.935 11-11 11z" fill="#4a90e2"/><path d="m34 46c0-8.271 6.729-15 15-15 4.301 0 8.401 1.851 11.25 5.078.274.312.714.419 1.103.274.39-.147.647-.519.647-.935v-7.417c0-.552-.448-1-1-1h-3v-19-2c0-1.654-1.346-3-3-3h-26c-1.654 0-3 1.346-3 3s1.346 3 3 3h1.538l-6.222 16h-13.316c-3.86 0-7 3.14-7 7v4h-2c-.552 0-1 .448-1 1l-.001 6.859c0 .402.241.766.613.922.372.157.799.075 1.087-.208 1.693-1.659 3.93-2.573 6.301-2.573 4.962 0 9 4.038 9 9 0 .552.448 1 1 1h14.797c.321 0 .622-.154.81-.414s.24-.594.14-.898c-.496-1.508-.747-3.085-.747-4.688zm26-17v4.039c-.63-.535-1.304-1.008-2-1.443v-2.596zm-32-23c0-.551.449-1 1-1h26c.551 0 1 .449 1 1v1h-24-3c-.551 0-1-.449-1-1zm3.517 6h7.483c.551 0 1 .449 1 1v12h-13.538zm-28.517 26h1v3.205c-.342.175-.678.362-1 .573zm29.474 12h-12.519c-.507-5.599-5.226-10-10.955-10-1.028 0-2.035.145-3 .417v-8.417c0-2.757 2.243-5 5-5h14 16c.552 0 1-.448 1-1v-13c0-1.654-1.346-3-3-3h-6.705l.389-1h23.316v21.52c-2.178-.985-4.559-1.52-7-1.52-9.374 0-17 7.626-17 17 0 1.356.159 2.697.474 4z" fill="#4a90e2"/><path d="m45 27h8c1.103 0 2-.897 2-2v-13c0-1.103-.897-2-2-2h-8c-1.103 0-2 .897-2 2v13c0 1.103.897 2 2 2zm0-15h8l.001 13h-8.001z" fill="#4a90e2"/><path d="m30 42h-4c-.552 0-1 .448-1 1v4c0 .552.448 1 1 1h4c.552 0 1-.448 1-1v-4c0-.552-.448-1-1-1zm-1 4h-2v-2h2z" fill="#4a90e2"/><path d="m23 28h-12c-2.206 0-4 1.794-4 4v5c0 .552.448 1 1 1h15c.552 0 1-.448 1-1v-8c0-.552-.448-1-1-1zm-11 2h1v6h-1zm3 0h1v6h-1zm3 0h1v6h-1zm-9 2c0-.737.405-1.375 1-1.722v5.722h-1zm13 4h-1v-6h1z" fill="#4a90e2"/><path d="m41.482 28.768c-.106-.451-.51-.77-.973-.77l-14.495.002c-.552 0-1 .448-1 1v8c0 .265.105.52.293.707s.442.293.707.293h6.249c.368 0 .706-.202.88-.525 1.772-3.29 4.475-5.911 7.813-7.582.416-.208.633-.674.526-1.125zm-9.806 7.232h-4.662v-6l9.979-.001c-2.152 1.612-3.955 3.642-5.317 6.001z" fill="#4a90e2"/></g></svg>
