<?xml version="1.0"?>
<svg xmlns="http://www.w3.org/2000/svg" height="512px" viewBox="0 0 60 60" width="512px"><g id="Page-1" fill="none" fill-rule="evenodd"><g id="015---Dig-For-Treasure" fill="rgb(0,0,0)" fill-rule="nonzero"><path id="Shape" d="m30 37c.5522847 0 1-.4477153 1-1s-.4477153-1-1-1c-.8473087-.0017295-1.602157-.5356466-1.886-1.334-.1889931-.5140664-.7563535-.780449-1.2726027-.5975023-.5162491.1829466-.7892723.7471415-.6123973 1.2655023.567239 1.5963274 2.0768879 2.6636104 3.771 2.666z" fill="#4A90E2"/><path id="Shape" d="m38 31.133v-6.133c0-1.1045695-.8954305-2-2-2h-3v-15.184c1.1943509-.42225455 1.9947486-1.54921457 2-2.816v-3c0-1.1045695-.8954305-2-2-2h-6c-1.1045695 0-2 .8954305-2 2v3c.0052514 1.26678543.8056491 2.39374545 2 2.816v15.184h-3c-1.1045695 0-2 .8954305-2 2v6.133c-12.70140702 2.0202659-22.03795452 12.9919824-22 25.853v1.014c0 1.1045695.8954305 2 2 2h56c1.1045695 0 2-.8954305 2-2v-1.014c.0379545-12.8610176-9.298593-23.8327341-22-25.853zm-9-23.133h2v21c0 .5522847-.4477153 1-1 1s-1-.4477153-1-1zm-2-6h6v3c0 .55228475-.4477153 1-1 1h-4c-.5522847 0-1-.44771525-1-1zm-3 23h3v4c0 1.6568542 1.3431458 3 3 3s3-1.3431458 3-3v-4h3v8c0 3.3137085-2.6862915 6-6 6s-6-2.6862915-6-6zm34.0001043 33h-56.00020813l.00010383-1.014c-.03427928-11.7554116 8.4230221-21.8180321 20.009-23.807.0165993.8022146.1548397 1.5972654.41 2.358l-1.012-.451c-.3265407-.1454071-.7058506-.1055614-.9950472.1045277-.2891966.210089-.4443442.5585038-.407.914.0373441.3554961.2615065.6640652.5880472.8094723l3.645 1.622c.728307.7594638 1.5988125 1.3683419 2.562 1.792l-6.207 2.758c-.5047883.2242276-.7322276.8152117-.508 1.32s.8152117.7322276 1.32.508l8.595-3.82 8.594 3.82c.5047883.2242276 1.0957724-.0032117 1.32-.508s-.0032117-1.0957724-.508-1.32l-6.206-2.758c.9635446-.4235446 1.8343987-1.0324289 2.563-1.792l3.645-1.622c.5047883-.2247799.7317799-.8162117.507-1.321s-.8162117-.7317799-1.321-.507l-1.012.451c.2551603-.7607346.3934007-1.5557854.41-2.358 11.5855802 1.9894018 20.0423621 12.0519071 20.008 23.807z" fill="#4A90E2"/><path id="Shape" d="m9 54h-3c-.55228475 0-1 .4477153-1 1s.44771525 1 1 1h3c.55228475 0 1-.4477153 1-1s-.44771525-1-1-1z" fill="#4A90E2"/><path id="Shape" d="m15 50h-3c-.5522847 0-1 .4477153-1 1s.4477153 1 1 1h3c.5522847 0 1-.4477153 1-1s-.4477153-1-1-1z" fill="#4A90E2"/><path id="Shape" d="m40 54h-3c-.5522847 0-1 .4477153-1 1s.4477153 1 1 1h3c.5522847 0 1-.4477153 1-1s-.4477153-1-1-1z" fill="#4A90E2"/><path id="Shape" d="m22 52h-3c-.5522847 0-1 .4477153-1 1s.4477153 1 1 1h3c.5522847 0 1-.4477153 1-1s-.4477153-1-1-1z" fill="#4A90E2"/><path id="Shape" d="m31 50h-3c-.5522847 0-1 .4477153-1 1s.4477153 1 1 1h3c.5522847 0 1-.4477153 1-1s-.4477153-1-1-1z" fill="#4A90E2"/><path id="Shape" d="m41 49h-3c-.5522847 0-1 .4477153-1 1s.4477153 1 1 1h3c.5522847 0 1-.4477153 1-1s-.4477153-1-1-1z" fill="#4A90E2"/><path id="Shape" d="m26 47h-3c-.5522847 0-1 .4477153-1 1s.4477153 1 1 1h3c.5522847 0 1-.4477153 1-1s-.4477153-1-1-1z" fill="#4A90E2"/><path id="Shape" d="m49 50h-3c-.5522847 0-1 .4477153-1 1s.4477153 1 1 1h3c.5522847 0 1-.4477153 1-1s-.4477153-1-1-1z" fill="#4A90E2"/><path id="Shape" d="m52 56h3c.5522847 0 1-.4477153 1-1s-.4477153-1-1-1h-3c-.5522847 0-1 .4477153-1 1s.4477153 1 1 1z" fill="#4A90E2"/><path id="Shape" d="m48 46c.5522847 0 1-.4477153 1-1s-.4477153-1-1-1h-3c-.5522847 0-1 .4477153-1 1s.4477153 1 1 1z" fill="#4A90E2"/><path id="Shape" d="m15 44h-3c-.5522847 0-1 .4477153-1 1s.4477153 1 1 1h3c.5522847 0 1-.4477153 1-1s-.4477153-1-1-1z" fill="#4A90E2"/></g></g></svg>
