<svg xmlns="http://www.w3.org/2000/svg" width="129" height="26" viewBox="0 0 129 26" fill="none">
    <path d="M112.432 19.6176H116.738V9.76471L124.085 19.6176H129V3.58824H124.693V13.6863L117.093 3.58824H112.381V19.6176H112.432ZM93.2286 11.6765C93.2286 10.2059 93.6339 9.02941 94.394 8.14706C95.154 7.31373 96.218 6.87255 97.586 6.87255C98.9034 6.87255 99.9167 7.31373 100.677 8.14706C101.437 8.98039 101.842 10.1078 101.842 11.5294C101.842 13.049 101.437 14.2255 100.677 15.1078C99.9167 15.9902 98.8527 16.3824 97.4847 16.3824C96.1673 16.3824 95.154 15.9412 94.394 15.1078C93.6339 14.2255 93.2286 13.098 93.2286 11.6765ZM71.8468 16.1863V7.01961H74.5829C75.4949 7.01961 76.2549 7.21569 76.9643 7.55882C77.6736 7.90196 78.1803 8.44118 78.5856 9.12745C78.9403 9.81373 79.143 10.549 79.143 11.4314C79.143 12.902 78.7376 14.0784 77.9269 14.9608C77.1163 15.7941 76.0016 16.2353 74.5829 16.2353H71.8468V16.1863ZM67.5401 19.6176H74.2282C77.3696 19.6176 79.751 18.9314 81.271 17.5098C82.8417 16.0882 83.6017 14.0784 83.6017 11.4314C83.6017 8.93137 82.791 6.97059 81.2204 5.64706C79.6497 4.32353 77.2683 3.63726 74.2282 3.63726H67.5401V19.6176ZM43.5742 19.6176H47.881V9.76471L55.2278 19.6176H60.1426V3.58824H55.8358V13.6863L48.2357 3.58824H43.5742V19.6176ZM26.4992 14.0294L28.9819 8.09804L31.3633 14.0294H26.4992ZM19.6591 19.6176H24.1178L25.0299 17.4608H32.6807L33.542 19.6176H38.4061L31.414 3.58824H26.7526L19.6591 19.6176ZM4.25609 11.1373V7.01961H8.61351C9.22152 7.01961 9.7282 7.21569 10.0829 7.55882C10.4375 7.95098 10.6402 8.44118 10.6402 9.07843C10.6402 9.66667 10.4375 10.1569 10.0829 10.549C9.7282 10.9412 9.22152 11.1373 8.61351 11.1373H4.25609ZM0 19.6176H4.25609V12.1176L10.5896 19.6176H16.0617L10.8936 13.7353C12.1603 13.4902 13.1736 12.951 13.9336 12.1176C14.6936 11.2843 15.099 10.1569 15.099 8.73529C15.099 7.90196 14.8963 7.06863 14.491 6.28431C14.0856 5.5 13.4269 4.86275 12.5149 4.37255C11.6029 3.88235 10.4375 3.63726 9.01885 3.63726H0V19.6176ZM106.301 11.4804C106.301 9.81372 105.946 8.39216 105.237 7.16667C104.527 5.94118 103.514 5.0098 102.197 4.32353C100.879 3.68628 99.3087 3.34314 97.5354 3.34314C95.7113 3.34314 94.1406 3.68627 92.8232 4.37255C91.5059 5.05882 90.4925 5.9902 89.7832 7.26471C89.0738 8.53922 88.7192 10.0098 88.7192 11.7745C88.7192 13.4412 89.0738 14.9118 89.7832 16.1373C90.4925 17.3627 91.5059 18.2941 92.8232 18.9804C94.1406 19.6176 95.7113 19.9608 97.4847 19.9608C99.3087 19.9608 100.879 19.6176 102.197 18.9314C103.514 18.2451 104.527 17.3137 105.237 16.0392C105.946 14.7157 106.301 13.2451 106.301 11.4804Z" fill="white"/>
</svg>