<?xml version="1.0" encoding="utf-8"?>
<!-- Generator: Adobe Illustrator 13.0.0, SVG Export Plug-In . SVG Version: 6.00 Build 14948)  -->
<!DOCTYPE svg PUBLIC "-//W3C//DTD SVG 1.1//EN" "http://www.w3.org/Graphics/SVG/1.1/DTD/svg11.dtd">
<svg version="1.1" id="Capa_1" xmlns="http://www.w3.org/2000/svg" xmlns:xlink="http://www.w3.org/1999/xlink" x="0px" y="0px"
	 width="512px" height="512px" viewBox="0 0 512 512" enable-background="new 0 0 512 512" xml:space="preserve">
<g>
	<g>
		<path fill="#4A90E2" d="M503.698,382.18c-0.106-0.322-0.321-0.645-0.429-0.859l-55.525-80.764
			c-2.686-3.866-8.055-4.939-11.921-2.255c-0.859,0.644-1.611,1.396-2.256,2.255l-55.525,80.764
			c-0.215,0.322-0.322,0.537-0.536,0.859c-18.58,34.797-5.37,77.972,29.427,96.552c27.816,14.82,61.969,9.666,84.2-12.673
			c8.27-8.378,14.284-18.688,17.721-29.857C514.439,418.266,512.506,398.719,503.698,382.18z M492.422,431.153
			c-2.685,8.592-7.303,16.433-13.532,22.876c-21.157,21.158-55.525,21.158-76.683-0.107c-16.646-16.754-20.62-42.314-9.773-63.258
			l48.115-70.023l48.114,70.023C495.322,403.123,496.611,417.621,492.422,431.153z"/>
	</g>
</g>
<g>
	<g>
		<path fill="#4A90E2" d="M471.157,397.752l-0.107-0.107c-2.9-3.65-8.377-4.402-12.137-1.503c-3.759,2.899-4.403,8.27-1.503,12.028
			c7.732,10.096,5.906,24.595-4.188,32.327c-3.759,2.9-4.403,8.27-1.504,12.029c2.899,3.651,8.162,4.403,11.921,1.61
			C481.252,440.604,484.582,415.366,471.157,397.752z"/>
	</g>
</g>
<g>
	<g>
		<path fill="#4A90E2" d="M460.202,197.776l-0.107-0.107l-19.01-26.42L357.422,54.937l-19.01-26.42
			c-2.685-3.867-8.055-4.833-11.921-2.041c-3.866,2.685-4.833,8.055-2.041,11.921l0.107,0.107l14.069,19.439l-45.751,32.971
			c0,0-0.107,0-0.107,0.107s-0.107,0-0.107,0.107l-46.826,33.723l-26.313,19.009l-26.42,18.902L33.401,277.467
			C12.458,292.609,0,316.881,0,342.657c0,39.308,28.567,72.816,67.339,79.153c4.296,0.751,8.699,1.073,13.103,1.073
			c16.754,0,33.078-5.263,46.718-15.144l141.552-101.813l117.494-84.63l45.966-33.079l14.069,19.439
			c2.686,3.866,8.055,4.833,11.922,2.041C462.029,206.905,462.994,201.643,460.202,197.776z M117.172,393.779
			c-28.246,20.298-67.661,13.961-88.067-14.392c-7.732-10.74-11.813-23.521-11.921-36.73c0-20.298,9.773-39.415,26.205-51.337
			l26.85-19.332l173.449,30.609L117.172,393.779z M263.234,288.636L89.785,258.027l79.797-57.458l30.071,41.778
			c2.793,3.866,8.163,4.725,12.029,1.933c3.866-2.792,4.726-8.163,1.933-12.029l-30.071-41.778l12.458-8.914l12.458,17.506
			c2.793,3.866,8.163,4.726,12.029,1.933s4.726-8.162,1.933-12.029l-12.565-17.291l12.458-8.914l30.072,41.778
			c2.792,3.866,8.162,4.725,12.028,1.933c3.866-2.792,4.726-8.163,1.934-12.029l-30.072-41.778l12.351-8.915l12.566,17.399
			c2.792,3.866,8.162,4.726,12.028,1.933s4.726-8.162,1.934-12.029l-12.566-17.398l32.972-23.735l73.675,102.351L263.234,288.636z
			 M383.198,202.287L309.523,99.937l38.878-28.031l73.783,102.458L383.198,202.287z"/>
	</g>
</g>
<rect x="60.5" y="270.5" fill="#4A90E2" width="66" height="135"/>
<rect x="34.5" y="278.5" fill="#4A90E2" width="88" height="126"/>
<rect x="23.265" y="296.671" transform="matrix(0.9641 -0.2655 0.2655 0.9641 -88.8138 26.0425)" fill="#4A90E2" width="57.35" height="89.851"/>
<rect x="21.959" y="324.662" transform="matrix(0.8672 -0.498 0.498 0.8672 -177.5408 66.8067)" fill="#4A90E2" width="29.001" height="83.088"/>
<rect x="64.752" y="293.565" transform="matrix(0.463 0.8863 -0.8863 0.463 364.569 85.3638)" fill="#4A90E2" width="94.161" height="100.001"/>
<rect x="86.076" y="281.224" transform="matrix(0.9818 0.1897 -0.1897 0.9818 60.1025 -22.152)" fill="#4A90E2" width="119.321" height="43.149"/>
<rect x="177.745" y="279.555" transform="matrix(0.5882 0.8087 -0.8087 0.5882 340.9103 -24.488)" fill="#4A90E2" width="33.51" height="85.89"/>
<rect x="224" y="290" fill="#4A90E2" width="19" height="29"/>
<rect x="420.5" y="320.5" fill="#4A90E2" width="36" height="94"/>
<rect x="401.5" y="348.5" fill="#4A90E2" width="31" height="118"/>
<rect x="381.5" y="377.5" fill="#4A90E2" width="62" height="76"/>
<rect x="403.5" y="352.5" fill="#4A90E2" width="69" height="120"/>
<rect x="435.5" y="339.5" fill="#4A90E2" width="37" height="126"/>
<rect x="460.843" y="364.248" fill="#4A90E2" width="27" height="96"/>
<rect x="469.5" y="375.5" fill="#4A90E2" width="29" height="82"/>
</svg>
