<?xml version="1.0" encoding="utf-8"?>
<!-- Generator: Adobe Illustrator 23.0.1, SVG Export Plug-In . SVG Version: 6.00 Build 0)  -->
<svg version="1.1" id="Capa_1" xmlns="http://www.w3.org/2000/svg" xmlns:xlink="http://www.w3.org/1999/xlink" x="0px" y="0px"
	 viewBox="0 0 512 512" style="enable-background:new 0 0 512 512;" xml:space="preserve">
<style type="text/css">
	.st0{fill:#4A90E2;}
</style>
<g>
	<g>
		<path class="st0" d="M382.3,389.2c-2.8,2.5-3.4,6.8-1.3,9.9c1.7,2.6,5.1,3.9,8.2,3.1c3-0.7,5.2-3.2,5.7-6.2
			C395.9,389.1,387.5,384.6,382.3,389.2z"/>
	</g>
</g>
<g>
	<g>
		<path class="st0" d="M407,437.5c-3.1,2.4-3.8,6.9-1.6,10.2c3.6,5.5,12.3,3.8,13.7-2.5C420.6,438.3,412.5,433.2,407,437.5z"/>
	</g>
</g>
<g>
	<g>
		<path class="st0" d="M335,354.2c-3.8-5.7-13-3.5-13.8,3.3c-0.8,6.8,7.4,11.1,12.6,6.6C336.5,361.6,337.1,357.3,335,354.2z"/>
	</g>
</g>
<g>
	<g>
		<path class="st0" d="M215.6,309.7c-3.6-5.5-12.2-3.8-13.7,2.5c-0.7,3,0.5,6.2,3,7.9c2.9,2,6.9,1.8,9.5-0.6
			C217.1,317.1,217.7,312.8,215.6,309.7z"/>
	</g>
</g>
<g>
	<g>
		<path class="st0" d="M88.1,441.2c-3.7-5.6-12.6-3.7-13.8,2.9c-0.5,3.2,1,6.5,3.9,8c2.8,1.5,6.3,1.1,8.7-1.1
			C89.7,448.6,90.2,444.3,88.1,441.2z"/>
	</g>
</g>
<g>
	<g>
		<path class="st0" d="M368.1,438.5c-1.2-2.8-4-4.7-7.1-4.7c-3.6,0-6.6,2.6-7.4,6.1c-1.3,6.8,6.8,11.8,12.3,7.3
			C368.4,445.2,369.4,441.6,368.1,438.5z"/>
	</g>
</g>
<g>
	<g>
		<path class="st0" d="M179.2,437.2c-1.7-2.6-5-3.9-8-3.2c-3.3,0.7-5.8,3.7-5.9,7c-0.3,6.8,8.1,10.5,12.9,5.7
			C180.8,444.3,181.2,440.2,179.2,437.2z"/>
	</g>
</g>
<g>
	<g>
		<path class="st0" d="M124.5,434.9c-3.2,1.9-4.6,6-3.2,9.4c1.2,2.7,3.8,4.6,6.8,4.7c3.2,0.1,6.1-1.9,7.3-4.9
			C138,437.6,130.6,431.3,124.5,434.9z"/>
	</g>
</g>
<g>
	<g>
		<path class="st0" d="M133.6,400.8c-0.9-3.1-3.8-5.3-7.1-5.4c-3.2-0.1-6.2,2-7.3,5c-1.2,3.3,0.1,6.9,2.9,8.9c2.8,1.8,6.5,1.7,9-0.5
			C133.5,406.9,134.5,403.7,133.6,400.8z"/>
	</g>
</g>
<g>
	<g>
		<path class="st0" d="M509.9,474.7l-140.5-149c-2.9-3-7.7-3.2-10.7-0.3c-3.1,2.9-3.2,7.7-0.3,10.7l128.4,136.2H119.2
			c-4.2,0-7.6,3.4-7.6,7.6c0,4.2,3.4,7.6,7.6,7.6h385.2c3,0,5.8-1.8,7-4.6C512.6,480.1,512,476.9,509.9,474.7z"/>
	</g>
</g>
<g>
	<g>
		<path class="st0" d="M351.1,306.1l-89.6-95.1c-1.4-1.5-3.4-2.4-5.5-2.4c-2.1,0-4.1,0.9-5.5,2.4L2.1,474.7
			c-2.1,2.2-2.6,5.4-1.4,8.2s3.9,4.6,7,4.6h86.4c4.2,0,7.6-3.4,7.6-7.6c0-4.2-3.4-7.6-7.6-7.6H25.2l230.8-245l84.1,89.2
			c2.9,3,7.7,3.2,10.7,0.3C353.9,314,354,309.2,351.1,306.1z"/>
	</g>
</g>
</svg>
