<?xml version="1.0" encoding="iso-8859-1"?>
<!-- Generator: Adobe Illustrator 19.0.0, SVG Export Plug-In . SVG Version: 6.00 Build 0)  -->
<svg xmlns="http://www.w3.org/2000/svg" xmlns:xlink="http://www.w3.org/1999/xlink" version="1.1" id="Capa_1" x="0px" y="0px" viewBox="0 0 512.001 512.001" style="enable-background:new 0 0 512.001 512.001;" xml:space="preserve" width="512px" height="512px">
<g>
	<g>
		<path d="M502.005,425.913h-38.921c8.303-9.812,13.324-22.484,13.324-36.314c0-31.047-25.258-56.304-56.304-56.304    c-31.046,0-56.304,25.258-56.304,56.304c0,13.83,5.021,26.502,13.324,36.314h-9.049c-5.52,0-9.995,4.475-9.995,9.995    s4.475,9.995,9.995,9.995h133.931c5.52,0,9.995-4.475,9.995-9.995S507.525,425.913,502.005,425.913z M420.122,425.913h-0.038    c-20.015-0.01-36.295-16.297-36.295-36.314c0-20.024,16.291-36.314,36.314-36.314s36.314,16.291,36.314,36.314    C456.417,409.616,440.137,425.902,420.122,425.913z" fill="#4a90e2"/>
	</g>
</g>
<g>
	<g>
		<path d="M333.563,425.913h-0.13c-5.52,0-9.995,4.475-9.995,9.995s4.475,9.995,9.995,9.995h0.13c5.52,0,9.995-4.475,9.995-9.995    S339.082,425.913,333.563,425.913z" fill="#4a90e2"/>
	</g>
</g>
<g>
	<g>
		<path d="M288.654,211.689h-0.13c-5.52,0-9.995,4.475-9.995,9.995c0,5.52,4.475,9.995,9.995,9.995h0.13    c5.52,0,9.995-4.475,9.995-9.995C298.649,216.164,294.174,211.689,288.654,211.689z" fill="#4a90e2"/>
	</g>
</g>
<g>
	<g>
		<path d="M501.744,134.088h-78.701l24.49-53.858c1.407-3.093,1.145-6.69-0.695-9.547c-1.84-2.858-5.005-4.585-8.404-4.585H194.243    c-3.393,0-6.554,1.721-8.395,4.571c-1.841,2.85-2.111,6.439-0.717,9.532l24.294,53.888h-78.491c-5.52,0-9.995,4.475-9.995,9.995    v152.007c0,3.429,1.758,6.619,4.657,8.45c1.623,1.025,3.477,1.545,5.338,1.545c1.462,0,2.93-0.321,4.292-0.968l36.026-17.133    h20.942c-26.331,14.186-44.269,42.015-44.269,73.962c0,25.606,11.535,48.555,29.667,63.967h-36.663v-93.285    c0-4.425-2.909-8.323-7.15-9.581c-4.242-1.26-8.807,0.42-11.22,4.128l-35.949,55.206L5.18,427.15    c-3.998,2.198-6,6.825-4.866,11.244c1.135,4.419,5.118,7.509,9.681,7.509h14.992h274.515c5.52,0,9.995-4.475,9.995-9.995    c0-5.52-4.475-9.995-9.995-9.995h-13.33c18.132-15.412,29.667-38.361,29.667-63.967c0-12.993-2.968-25.305-8.26-36.295    l17.641,30.963c1.778,3.12,5.093,5.047,8.685,5.047h24.897c3.62,0,6.956-1.957,8.724-5.116l27.122-48.502h49.49l51.187,42.905    c2.975,2.495,7.127,3.04,10.647,1.397c3.519-1.642,5.768-5.174,5.768-9.057V144.083    C511.739,138.563,507.264,134.088,501.744,134.088z M120.939,425.913H48.92l49.515-27.223c1.44-0.792,2.664-1.927,3.56-3.304    l18.944-29.092V425.913z M422.912,86.086L422.912,86.086l-21.571,47.439l-169.998,0.542l-21.63-47.98H422.912z M181.897,267.994    l16.401-58.342c1.494-5.313-1.603-10.832-6.917-12.327c-5.312-1.495-10.833,1.603-12.327,6.917l-17.922,63.751h-20.204V154.078    h0.001h83.965c0.01,0,0.021,0,0.032,0h17.752l-32.027,113.917h-1.176H181.897z M231.882,425.913    c-35.272,0-63.967-28.696-63.967-63.967c0-35.272,28.695-63.967,63.967-63.967s63.967,28.695,63.967,63.967    C295.85,397.218,267.154,425.913,231.882,425.913z M271.57,287.984h14.55l15.824,27.774    C294.284,304.179,283.844,294.597,271.57,287.984z M491.749,321.869l-37.557-31.481c-1.799-1.508-4.073-2.335-6.421-2.335h-58.987    c-3.62,0-6.956,1.957-8.724,5.116l-27.122,48.5h-13.226l-39.101-68.629c-1.778-3.12-5.093-5.047-8.685-5.047h-60.513    l32.028-113.917h68.874l-14.385,26.72c-2.617,4.86-0.798,10.922,4.063,13.538c4.862,2.616,10.922,0.798,13.538-4.063    l19.485-36.195h43.478l19.485,36.195c1.805,3.353,5.25,5.259,8.809,5.259c1.599,0,3.222-0.385,4.729-1.196    c4.861-2.617,6.68-8.678,4.063-13.538l-14.385-26.72h70.55v57.613H323.165c-5.52,0-9.995,4.475-9.995,9.995    c0,5.52,4.475,9.995,9.995,9.995h168.585V321.869z" fill="#4a90e2"/>
	</g>
</g>
<g>
	<g>
		<path d="M231.882,319.968c-23.147,0-41.979,18.831-41.979,41.979c0,23.147,18.831,41.979,41.979,41.979    s41.979-18.831,41.979-41.979C273.861,338.799,255.029,319.968,231.882,319.968z M231.882,383.935    c-12.125,0-21.989-9.864-21.989-21.989c0-12.125,9.864-21.989,21.989-21.989c12.125,0,21.989,9.864,21.989,21.989    C253.871,374.071,244.007,383.935,231.882,383.935z" fill="#4a90e2"/>
	</g>
</g>
<g>
	<g>
		<path d="M199.747,167.403c-5.313-1.488-10.831,1.613-12.32,6.929l-0.076,0.272c-1.488,5.314,1.614,10.83,6.929,12.32    c0.902,0.253,1.808,0.373,2.701,0.373c4.37,0,8.383-2.888,9.619-7.302l0.076-0.272    C208.165,174.407,205.063,168.891,199.747,167.403z" fill="#4a90e2"/>
	</g>
</g>
<g>
	<g>
		<path d="M420.168,379.603h-0.13c-5.52,0-9.995,4.475-9.995,9.995s4.475,9.995,9.995,9.995h0.13c5.52,0,9.995-4.475,9.995-9.995    S425.688,379.603,420.168,379.603z" fill="#4a90e2"/>
	</g>
</g>
<g>
</g>
<g>
</g>
<g>
</g>
<g>
</g>
<g>
</g>
<g>
</g>
<g>
</g>
<g>
</g>
<g>
</g>
<g>
</g>
<g>
</g>
<g>
</g>
<g>
</g>
<g>
</g>
<g>
</g>
</svg>
