<?xml version="1.0" encoding="utf-8"?>
<!-- Generator: Adobe Illustrator 13.0.0, SVG Export Plug-In . SVG Version: 6.00 Build 14948)  -->
<!DOCTYPE svg PUBLIC "-//W3C//DTD SVG 1.1//EN" "http://www.w3.org/Graphics/SVG/1.1/DTD/svg11.dtd">
<svg version="1.1" id="Capa_1" xmlns="http://www.w3.org/2000/svg" xmlns:xlink="http://www.w3.org/1999/xlink" x="0px" y="0px"
	 width="512px" height="512px" viewBox="0 0 512 512" enable-background="new 0 0 512 512" xml:space="preserve">
<g>
	<g>
		<path fill="#4A90E2" d="M274.182,79.004H84.315c-5.9,0-10.728,4.827-10.728,10.727v125.506c0,5.9,4.827,10.727,10.728,10.727
			h189.867c5.9,0,10.728-4.827,10.728-10.727V89.731C284.909,83.832,280.082,79.004,274.182,79.004z M263.455,204.51H95.041V100.458
			h168.414V204.51z"/>
	</g>
</g>
<g>
	<g>
		<path fill="#4A90E2" d="M501.165,464.104H321.381V292.472h17.484c15.876,0,28.749,12.979,28.642,28.856c0,0.106,0,0.106,0,0.214
			v29.714c0,31.43,25.423,56.854,56.853,56.854c31.431,0,56.854-25.424,56.854-56.854V181.555c0-17.592-6.543-34.541-18.558-47.521
			l-83.885-95.578l-16.091,14.16l65.006,74.124c-23.492,3.969-39.368,26.174-35.399,49.666c3.433,20.81,21.454,36.042,42.586,36.042
			c8.903-0.107,17.593-2.789,24.887-7.938v146.746c0,19.523-15.876,35.398-35.398,35.398c-19.523,0-35.399-15.875-35.399-35.398
			v-29.714c0.107-27.782-22.313-50.417-49.988-50.524h-0.107h-17.484V71.174c0-24.458-19.738-44.732-44.195-44.732H77.878
			c-24.458,0-43.98,20.381-43.98,44.732v392.93H10.727C4.827,464.104,0,468.931,0,474.831c0,5.899,4.827,10.727,10.727,10.727
			h490.546c5.899,0,10.728-4.827,10.728-10.727C512,468.931,507.172,464.104,501.165,464.104z M434.872,190.887
			c-12.014,0-21.668-9.762-21.668-21.668c0-11.907,9.761-21.669,21.668-21.669c12.015,0,21.669,9.762,21.669,21.669
			C456.541,181.125,446.78,190.887,434.872,190.887z M299.927,464.104H55.352V71.174c0-12.658,9.868-23.278,22.526-23.278h199.308
			c12.658,0,22.741,10.727,22.741,23.278V464.104L299.927,464.104z"/>
	</g>
</g>
<g>
	<path fill="#4A90E2" d="M144.308,153.196v-6.106h14.014v12.512c-2.683,1.829-5.055,3.073-7.117,3.733
		c-2.063,0.661-4.508,0.991-7.337,0.991c-3.483,0-6.323-0.594-8.518-1.782c-2.196-1.188-3.897-2.956-5.105-5.305
		c-1.208-2.349-1.812-5.045-1.812-8.088c0-3.203,0.661-5.989,1.982-8.358c1.321-2.369,3.256-4.167,5.806-5.395
		c1.988-0.947,4.665-1.421,8.028-1.421c3.243,0,5.668,0.294,7.277,0.881c1.608,0.587,2.942,1.499,4.004,2.732
		c1.061,1.235,1.858,2.8,2.392,4.695l-8.749,1.562c-0.36-1.107-0.971-1.955-1.832-2.542c-0.86-0.587-1.958-0.881-3.293-0.881
		c-1.989,0-3.573,0.69-4.755,2.072c-1.181,1.381-1.771,3.567-1.771,6.556c0,3.177,0.597,5.445,1.792,6.807
		c1.194,1.361,2.859,2.042,4.995,2.042c1.014,0,1.982-0.146,2.903-0.44c0.921-0.293,1.975-0.794,3.163-1.501v-2.763H144.308z"/>
	<path fill="#4A90E2" d="M181.751,158.982h-10.296l-1.43,4.845h-9.26l11.031-29.349h9.892l11.028,29.349h-9.497L181.751,158.982z
		 M179.869,152.636l-3.239-10.55l-3.206,10.55H179.869z"/>
	<path fill="#4A90E2" d="M194.017,154.117l8.628-0.541c0.187,1.401,0.567,2.469,1.141,3.203c0.934,1.188,2.269,1.782,4.004,1.782
		c1.294,0,2.292-0.303,2.993-0.911c0.7-0.607,1.051-1.311,1.051-2.112c0-0.761-0.334-1.441-1.001-2.042
		c-0.667-0.601-2.216-1.167-4.645-1.702c-3.978-0.894-6.813-2.082-8.508-3.563c-1.708-1.481-2.563-3.37-2.563-5.666
		c0-1.508,0.437-2.933,1.311-4.274c0.874-1.342,2.189-2.396,3.944-3.163c1.754-0.768,4.16-1.151,7.217-1.151
		c3.75,0,6.609,0.698,8.578,2.092c1.969,1.395,3.14,3.614,3.514,6.657l-8.548,0.5c-0.227-1.321-0.704-2.282-1.431-2.883
		c-0.728-0.601-1.732-0.901-3.013-0.901c-1.055,0-1.849,0.224-2.382,0.67c-0.534,0.448-0.801,0.991-0.801,1.632
		c0,0.467,0.22,0.888,0.661,1.261c0.427,0.387,1.441,0.748,3.043,1.081c3.964,0.854,6.803,1.719,8.518,2.592
		c1.715,0.875,2.963,1.959,3.744,3.253c0.78,1.295,1.171,2.743,1.171,4.344c0,1.882-0.521,3.617-1.562,5.205
		c-1.041,1.588-2.496,2.793-4.364,3.613c-1.869,0.821-4.224,1.231-7.067,1.231c-4.992,0-8.448-0.961-10.37-2.883
		S194.27,157.08,194.017,154.117z"/>
</g>
</svg>
