<?xml version="1.0" encoding="utf-8"?>
<!-- Generator: Adobe Illustrator 23.0.1, SVG Export Plug-In . SVG Version: 6.00 Build 0)  -->
<svg version="1.1" id="Capa_1" xmlns="http://www.w3.org/2000/svg" xmlns:xlink="http://www.w3.org/1999/xlink" x="0px" y="0px"
	 viewBox="0 0 512 512" style="enable-background:new 0 0 512 512;" xml:space="preserve">
<style type="text/css">
	.st0{fill:#4A90E2;}
</style>
<g>
	<rect x="423" y="478" class="st0" width="28" height="28"/>
	<rect x="343" y="478" class="st0" width="28" height="28"/>
	<path class="st0" d="M94,77c-43.8,45.7-68,109.2-68,179c0,67.9,28.1,131.1,79.1,177.9c49.3,45.2,115.1,70.6,185.9,72v-28
		C157.6,475.1,54,378.7,54,256c0-128.6,89.3-222,212.3-222c56.1,0,104,17.2,138.6,49.9c34.7,32.7,53.1,78,53.1,131.1
		c0,90-70.7,160.4-161,160.4c-87.7,0-140-65.9-140-129.7c0-45.6,33.9-109.7,109.3-109.7c23.2,0,44.7,6.7,60.5,18.8
		c18.5,14.2,28.3,35,28.3,60.1c0,18-7.9,33-22.9,43.4l-7.1,4.9l-2.2-8.3c-4.1-15.8-18.4-26.9-34.8-26.9c-19.9,0-36,16.1-36,36
		c0,19.1,15,34.9,34.2,36c25.1,0,47.1-7.1,65.3-21.1c20.4-15.6,31.6-38.3,31.6-63.9c0-33.4-13-61.4-37.5-81
		c-21-16.7-49.1-26-79.2-26c-53.7,0-86.3,26-104.3,47.8c-20.6,25.1-33,58.7-33,89.9c0,39.5,16.4,78.9,44.9,108.1
		c31.2,32,75,49.6,123.2,49.6c51.1,0,98.7-19.4,134-54.6C466.5,313.5,486,266,486,215c0-30.5-5.4-59.1-15.9-84.9
		c-10.4-25.5-25.6-47.8-45.3-66.4C385,25.9,330.2,6,266.3,6C199.1,6,137.9,31.2,94,77z"/>
</g>
</svg>
