<?xml version="1.0"?>
<svg xmlns="http://www.w3.org/2000/svg" height="512px" viewBox="0 0 128 128" width="512px"><g><path d="m102.581 13.209a9.852 9.852 0 0 0 2.735-6.73 1.749 1.749 0 0 0 -1.75-1.729h-79.132a1.749 1.749 0 0 0 -1.75 1.729 9.852 9.852 0 0 0 2.735 6.73c-6.58 35.772-.233 91.234.67 98.684a14.517 14.517 0 0 0 -3.4 9.711 1.75 1.75 0 0 0 1.747 1.646h79.132a1.75 1.75 0 0 0 1.747-1.646 14.517 14.517 0 0 0 -3.4-9.711c.899-7.45 7.246-62.912.666-98.684zm-1.032-4.959a5.065 5.065 0 0 1 -1.51 2.5h-72.078a5.08 5.08 0 0 1 -1.51-2.5zm-72.761 6h70.424c6.195 34.326.445 86.928-.689 96.5h-69.046c-1.134-9.572-6.884-62.174-.689-96.5zm-2.5 105.5a10.612 10.612 0 0 1 2.407-5.5h70.611a10.6 10.6 0 0 1 2.406 5.5z" fill="#4a90e2"/><path d="m30.556 37.659h.1a1.748 1.748 0 0 0 1.745-1.65c.178-3.121.409-6.122.685-8.922a1.75 1.75 0 1 0 -3.483-.343c-.281 2.847-.515 5.9-.7 9.066a1.751 1.751 0 0 0 1.653 1.849z" fill="#4a90e2"/><path d="m46.333 88.917h35.334a1.75 1.75 0 0 0 1.75-1.75v-43.067a1.749 1.749 0 0 0 -1.75-1.75h-35.334a1.749 1.749 0 0 0 -1.75 1.75v43.067a1.75 1.75 0 0 0 1.75 1.75zm1.75-43.071h31.834v39.571h-31.834z" fill="#4a90e2"/><path d="m75.107 62.978a8.811 8.811 0 0 0 -9.357 2.184v-4.034c.327.028.662.045 1 .045a10.763 10.763 0 0 0 5.762-1.573 8.506 8.506 0 0 0 3.819-7.119 1.751 1.751 0 0 0 -1.224-1.757 8.809 8.809 0 0 0 -9.357 2.184v-2.208a1.75 1.75 0 0 0 -3.5 0v2.208a8.809 8.809 0 0 0 -9.357-2.184 1.751 1.751 0 0 0 -1.224 1.757 8.506 8.506 0 0 0 3.819 7.119 10.763 10.763 0 0 0 5.757 1.576c.343 0 .678-.017 1.005-.045v4.034a8.809 8.809 0 0 0 -9.357-2.184 1.75 1.75 0 0 0 -1.224 1.756 8.505 8.505 0 0 0 3.819 7.12 10.765 10.765 0 0 0 5.758 1.577c.343 0 .678-.018 1-.046v7.18a1.75 1.75 0 0 0 3.5 0v-7.18c.326.029.661.046 1 .046a10.765 10.765 0 0 0 5.758-1.577 8.505 8.505 0 0 0 3.819-7.12 1.75 1.75 0 0 0 -1.216-1.759zm-2.475-9.227a4.631 4.631 0 0 1 -2.022 2.908 7.277 7.277 0 0 1 -4.089 1.007c1.566-2.907 3.587-4.197 6.111-3.915zm-15.242 2.908a4.631 4.631 0 0 1 -2.022-2.908c2.525-.283 4.545 1.009 6.111 3.915a7.222 7.222 0 0 1 -4.089-1.007zm0 12.257a4.634 4.634 0 0 1 -2.021-2.908c2.525-.286 4.545 1.009 6.111 3.915a7.215 7.215 0 0 1 -4.091-1.007zm13.222 0a7.266 7.266 0 0 1 -4.09 1.007c1.566-2.906 3.587-4.2 6.111-3.915a4.634 4.634 0 0 1 -2.022 2.908z" fill="#4a90e2"/></g></svg>
