<svg width="40" height="40" viewBox="0 0 40 40" fill="none" xmlns="http://www.w3.org/2000/svg">
<g id="icon_ticket_money 1" clip-path="url(#clip0_3912_11503)">
<path id="Vector" d="M25.5551 20.0623L24.2067 20.1387L22.8584 20.2466C22.7472 19.6551 22.4284 19.1227 21.9596 18.7454C21.7457 18.5002 21.4504 18.3406 21.1281 18.296C21.0012 18.3289 20.8909 18.4073 20.818 18.5162C20.7101 18.6421 20.3685 19.0286 20.9393 20.314L20.9753 20.3994C21.4247 21.46 22.2697 23.4331 20.9169 25.0645C20.6306 25.4333 20.2687 25.7363 19.8555 25.9534C19.4423 26.1705 18.9874 26.2965 18.5213 26.323H18.3775C17.7558 26.313 17.1467 26.146 16.6067 25.8376L15.7079 26.7365L13.8067 24.8263L14.6831 23.9499C14.3003 23.3265 13.9825 22.6653 13.7348 21.9769L16.2787 21.078C16.5335 21.8195 16.9219 22.508 17.4247 23.1095C17.6711 23.3978 18.0184 23.5811 18.3955 23.6218C18.4539 23.6218 18.6112 23.6218 18.8449 23.3387C19.1236 22.9971 18.8449 22.278 18.4989 21.4466L18.4629 21.3612C17.6719 19.505 17.7663 17.9634 18.7461 16.7859C19.0063 16.4521 19.3318 16.1747 19.7027 15.9707C20.0736 15.7668 20.4821 15.6404 20.9034 15.5994C21.5143 15.55 22.1267 15.6747 22.6697 15.9589L23.5955 15.0331L25.5056 16.9387L24.6966 17.7477C25.181 18.4305 25.4771 19.2288 25.5551 20.0623ZM39.6315 19.8241C39.6295 24.4135 38.0347 28.86 35.1191 32.4043C32.2035 35.9486 28.1481 38.3711 23.6452 39.258C19.1423 40.1449 14.4711 39.4413 10.4293 37.2673C6.38742 35.0934 3.22545 31.5839 1.48327 27.338C-0.258915 23.0921 -0.473294 18.3731 0.876728 13.9868C2.22675 9.6004 5.05744 5.81865 8.88557 3.28716C12.7137 0.755676 17.3018 -0.368534 21.8666 0.106442C26.4313 0.58142 30.6897 2.62614 33.9146 5.89151C37.577 9.604 39.6307 14.6091 39.6315 19.8241ZM36.9348 19.8241C36.9452 15.9447 35.629 12.1784 33.2045 9.14993L30.2472 12.1072V22.1297L17.5191 34.8578L5.58202 22.9252L18.3011 10.1971H28.3326L31.3528 7.1769C28.4527 4.52697 24.7296 2.95486 20.8079 2.72415C16.8862 2.49344 13.0044 3.61819 9.81357 5.90975C6.62274 8.20135 4.31686 11.5204 3.28267 15.3103C2.24848 19.1002 2.54887 23.1304 4.13346 26.7252C5.71802 30.3199 8.49047 33.2604 11.9858 35.0537C15.4811 36.8469 19.4867 37.3838 23.3308 36.5743C27.175 35.7648 30.6239 33.6581 33.0991 30.6075C35.5744 27.5569 36.9255 23.748 36.9258 19.8196L36.9348 19.8241ZM27.5506 12.8982H19.4292L9.39326 22.9297L17.5236 31.06L27.5551 21.0241L27.5506 12.8982Z" fill="#009FE1"/>
</g>
<defs>
<clipPath id="clip0_3912_11503">
<rect width="40" height="40" fill="white"/>
</clipPath>
</defs>
</svg>
