<?xml version="1.0" encoding="iso-8859-1"?>
<!-- Generator: Adobe Illustrator 19.0.0, SVG Export Plug-In . SVG Version: 6.00 Build 0)  -->
<svg xmlns="http://www.w3.org/2000/svg" xmlns:xlink="http://www.w3.org/1999/xlink" version="1.1" id="Capa_1" x="0px" y="0px" viewBox="0 0 511.999 511.999" style="enable-background:new 0 0 511.999 511.999;" xml:space="preserve" width="512px" height="512px">
<g>
	<g>
		<path d="M424.743,114.604c-1.86-1.87-4.44-2.93-7.07-2.93c-2.64,0-5.21,1.06-7.07,2.93c-1.87,1.86-2.93,4.43-2.93,7.07    c0,2.63,1.06,5.21,2.93,7.07c1.86,1.86,4.43,2.93,7.07,2.93c2.63,0,5.21-1.07,7.07-2.93c1.86-1.86,2.93-4.44,2.93-7.07    C427.673,119.034,426.603,116.464,424.743,114.604z" fill="#4a90e2"/>
	</g>
</g>
<g>
	<g>
		<path d="M427.669,233.088V161.67c0-5.523-4.477-10-10-10c-5.523,0-10,4.477-10,10v77.941c0,4.048,2.441,7.698,6.183,9.243    c33.818,13.965,59.098,41.254,70.851,74.359H358.079c-5.523,0-10,4.478-10,10c0,5.522,4.477,10,10,10H490    c1.309,7.318,2.001,14.821,2.001,22.45c0,69.657-56.671,126.328-126.328,126.328c-6.449,0-12.87-0.496-19.201-1.461    c5.174-11.004,4.689-23.599-1.485-34.293l-88.736-153.694c7.59-13.128,17.36-24.701,29.105-34.386    c9.725-8.02,20.536-14.513,32.135-19.303c3.742-1.545,6.183-5.195,6.183-9.243V60.006h83.997v20.332c0,5.523,4.477,10,10,10    c5.523,0,10-4.477,10-10V59.992c16.273-0.312,29.418-13.638,29.418-29.984c0-16.541-13.458-29.999-29.999-29.999H308.071    c-16.541,0-29.999,13.458-29.999,29.999c0,15.047,11.138,27.54,25.602,29.674V233.09c-11.11,5.203-21.527,11.791-31.042,19.636    c-10.668,8.796-19.941,18.931-27.688,30.232l-4.145-7.179V117.211c13.537-2.895,23.721-14.944,23.721-29.333    c0-16.541-13.458-29.999-29.999-29.999H115.504c-16.541,0-29.999,13.457-29.999,29.999c0,14.388,10.184,26.438,23.721,29.333    v158.57L5.039,456.237c-6.719,11.637-6.719,25.531,0,37.169c6.719,11.638,18.751,18.584,32.189,18.584h275.569    c6.271,0,12.227-1.53,17.488-4.326c11.521,2.861,23.416,4.326,35.387,4.326c80.685,0,146.328-65.643,146.328-146.328    C512,308.443,479.117,257.121,427.669,233.088z M298.071,30.007c0-5.514,4.486-10,10-10h119.018c5.514,0,10,4.486,10,10    s-4.486,10-10,10h-9.419H313.674h-5.603C302.557,40.007,298.071,35.522,298.071,30.007z M105.504,87.878c0-5.514,4.486-10,10-10    h119.018c5.514,0,10,4.486,10,10s-4.486,10-10,10H115.504C109.989,97.877,105.504,93.392,105.504,87.878z M127.885,283.46    c0.878-1.521,1.34-3.244,1.34-5V117.877H220.8V278.46c0,1.756,0.462,3.479,1.34,5l37.837,65.536H90.048L127.885,283.46z     M327.666,483.405c-3.104,5.376-8.662,8.585-14.869,8.585H37.228c-6.208,0-11.766-3.209-14.869-8.585    c-3.104-5.376-3.104-11.794,0-17.169l56.143-97.241h193.022l56.143,97.241C330.77,471.612,330.77,478.029,327.666,483.405z" fill="#4a90e2"/>
	</g>
</g>
<g>
	<g>
		<path d="M321.077,326.146c-1.86-1.869-4.44-2.93-7.07-2.93c-2.63,0-5.21,1.061-7.07,2.93c-1.86,1.86-2.93,4.431-2.93,7.07    c0,2.63,1.07,5.2,2.93,7.07c1.86,1.859,4.44,2.93,7.07,2.93c2.63,0,5.21-1.07,7.07-2.93c1.86-1.87,2.93-4.44,2.93-7.07    C324.007,330.576,322.937,328.006,321.077,326.146z" fill="#4a90e2"/>
	</g>
</g>
<g>
	<g>
		<path d="M203.082,180.931c-1.86-1.86-4.44-2.93-7.07-2.93c-2.63,0-5.21,1.07-7.07,2.93c-1.86,1.86-2.93,4.44-2.93,7.07    c0,2.63,1.07,5.21,2.93,7.07c1.86,1.86,4.439,2.93,7.07,2.93c2.63,0,5.21-1.07,7.07-2.93s2.93-4.44,2.93-7.07    C206.012,185.371,204.942,182.791,203.082,180.931z" fill="#4a90e2"/>
	</g>
</g>
<g>
	<g>
		<path d="M169.083,235.929c-1.86-1.86-4.44-2.93-7.07-2.93c-2.63,0-5.21,1.07-7.07,2.93s-2.93,4.44-2.93,7.07    c0,2.63,1.07,5.21,2.93,7.07c1.86,1.86,4.439,2.93,7.07,2.93c2.63,0,5.21-1.07,7.07-2.93c1.86-1.86,2.93-4.44,2.93-7.07    C172.013,240.369,170.943,237.789,169.083,235.929z" fill="#4a90e2"/>
	</g>
</g>
<g>
	<g>
		<path d="M198.082,297.857c-1.86-1.859-4.44-2.92-7.07-2.92c-2.63,0-5.21,1.061-7.07,2.92c-1.86,1.87-2.93,4.45-2.93,7.08    s1.07,5.21,2.93,7.07c1.86,1.861,4.439,2.93,7.07,2.93c2.63,0,5.21-1.069,7.07-2.93c1.86-1.87,2.93-4.44,2.93-7.07    C201.012,302.307,199.942,299.727,198.082,297.857z" fill="#4a90e2"/>
	</g>
</g>
<g>
	<g>
		<path d="M120.085,395.553c-1.86-1.859-4.44-2.93-7.07-2.93c-2.63,0-5.21,1.07-7.07,2.93s-2.93,4.44-2.93,7.07s1.07,5.21,2.93,7.07    c1.86,1.859,4.44,2.93,7.07,2.93c2.63,0,5.21-1.07,7.07-2.93s2.93-4.44,2.93-7.07S121.945,397.413,120.085,395.553z" fill="#4a90e2"/>
	</g>
</g>
<g>
	<g>
		<path d="M236.409,439.922c-1.859-1.86-4.429-2.93-7.07-2.93c-2.63,0-5.21,1.069-7.07,2.93c-1.86,1.861-2.93,4.44-2.93,7.07    s1.07,5.21,2.93,7.069c1.87,1.86,4.44,2.931,7.07,2.931c2.64,0,5.21-1.07,7.07-2.931c1.87-1.859,2.93-4.439,2.93-7.069    S238.279,441.782,236.409,439.922z" fill="#4a90e2"/>
	</g>
</g>
<g>
	<g>
		<path d="M441.073,374.925c-1.86-1.86-4.44-2.93-7.07-2.93c-2.63,0-5.21,1.069-7.07,2.93c-1.86,1.86-2.93,4.44-2.93,7.07    s1.07,5.21,2.93,7.069c1.86,1.86,4.44,2.931,7.07,2.931c2.63-0.001,5.21-1.071,7.07-2.931c1.86-1.859,2.93-4.439,2.93-7.069    S442.933,376.785,441.073,374.925z" fill="#4a90e2"/>
	</g>
</g>
<g>
	<g>
		<path d="M381.424,406.923c-1.86-1.86-4.43-2.93-7.07-2.93c-2.63,0-5.21,1.069-7.07,2.93c-1.86,1.861-2.93,4.44-2.93,7.07    s1.07,5.21,2.93,7.069c1.871,1.861,4.441,2.931,7.07,2.931c2.64,0,5.21-1.07,7.07-2.931c1.87-1.859,2.93-4.439,2.93-7.069    S383.294,408.783,381.424,406.923z" fill="#4a90e2"/>
	</g>
</g>
<g>
	<g>
		<path d="M402.073,274.928c-1.86-1.86-4.44-2.93-7.07-2.93s-5.209,1.07-7.07,2.93c-1.86,1.86-2.93,4.44-2.93,7.07    c0,2.63,1.07,5.21,2.93,7.069c1.86,1.86,4.44,2.931,7.07,2.931s5.21-1.07,7.07-2.931c1.86-1.859,2.93-4.439,2.93-7.069    C405.003,279.368,403.933,276.788,402.073,274.928z" fill="#4a90e2"/>
	</g>
</g>
<g>
	<g>
		<path d="M365.146,200.591c-1.86-1.86-4.43-2.92-7.07-2.92c-2.63,0-5.21,1.06-7.07,2.92c-1.86,1.87-2.93,4.45-2.93,7.08    c0,2.63,1.07,5.2,2.93,7.07c1.86,1.86,4.44,2.93,7.07,2.93c2.64,0,5.21-1.07,7.07-2.93c1.87-1.87,2.93-4.44,2.93-7.07    C368.076,205.041,367.016,202.461,365.146,200.591z" fill="#4a90e2"/>
	</g>
</g>
<g>
</g>
<g>
</g>
<g>
</g>
<g>
</g>
<g>
</g>
<g>
</g>
<g>
</g>
<g>
</g>
<g>
</g>
<g>
</g>
<g>
</g>
<g>
</g>
<g>
</g>
<g>
</g>
<g>
</g>
</svg>
