<?xml version="1.0" encoding="UTF-8"?>
<!DOCTYPE svg PUBLIC "-//W3C//DTD SVG 1.1//EN" "http://www.w3.org/Graphics/SVG/1.1/DTD/svg11.dtd">
<!-- Creator: CorelDRAW 2019 (64 Bit) -->
<svg xmlns="http://www.w3.org/2000/svg" xml:space="preserve" width="135mm" height="107mm" version="1.1" style="shape-rendering:geometricPrecision; text-rendering:geometricPrecision; image-rendering:optimizeQuality; fill-rule:evenodd; clip-rule:evenodd"
viewBox="0 0 13487.21 10689.86"
 xmlns:xlink="http://www.w3.org/1999/xlink"
 xmlns:xodm="http://www.corel.com/coreldraw/odm/2003">
 <defs>
  <style type="text/css">
   <![CDATA[
    .fil0 {fill:none}
    .fil1 {fill:#4A90E2}
   ]]>
  </style>
 </defs>
 <g id="Camada_x0020_1">
  <metadata id="CorelCorpID_0Corel-Layer"/>
  <rect class="fil0" width="13487.21" height="10689.86"/>
  <path class="fil1" d="M13202.85 10032l-12453.06 0 3541.26 -6446.6c903.84,-1629.14 1497.19,-1172.72 2172.98,-530.55l863.85 820.96c4647.7,4451.67 1321.06,-2988.95 5303.01,5471.8 83.6,126.17 253.69,160.62 379.82,76.99 126.13,-83.64 160.63,-253.65 77,-379.82 -4272.98,-8822.06 -1703.79,-1691.47 -5382.28,-5566.26l-863.85 -820.95c-1121.42,-1065.73 -2096.03,-1021.03 -3029.79,661.9l-3767.06 6853.64c-47.11,84.87 -45.79,188.36 3.47,271.99 49.26,83.67 139.07,135 236.16,135l12918.49 0.01c151.34,0 274.04,-122.69 274.04,-274.04 0,-151.34 -122.69,-274.08 -274.04,-274.08z"/>
 </g>
</svg>
