<?xml version="1.0" encoding="UTF-8"?>
<!DOCTYPE svg PUBLIC "-//W3C//DTD SVG 1.1//EN" "http://www.w3.org/Graphics/SVG/1.1/DTD/svg11.dtd">
<!-- Creator: CorelDRAW 2019 (64 Bit) -->
<svg xmlns="http://www.w3.org/2000/svg" xml:space="preserve" width="123.299mm" height="107.248mm" version="1.1" style="shape-rendering:geometricPrecision; text-rendering:geometricPrecision; image-rendering:optimizeQuality; fill-rule:evenodd; clip-rule:evenodd"
viewBox="0 0 11965.78 10408.11"
 xmlns:xlink="http://www.w3.org/1999/xlink"
 xmlns:xodm="http://www.corel.com/coreldraw/odm/2003">
 <defs>
  <style type="text/css">
   <![CDATA[
    .fil0 {fill:#4A90E2}
   ]]>
  </style>
 </defs>
 <g id="Camada_x0020_1">
  <metadata id="CorelCorpID_0Corel-Layer"/>
  <path class="fil0" d="M11732.08 1685.15c129.07,0 233.7,-104.66 233.7,-233.71l0 -1217.72c0,-129.05 -104.63,-233.71 -233.7,-233.71l-11498.38 -0.01c-129.07,0 -233.7,104.66 -233.7,233.71l0 1217.72c0,129.05 104.63,233.71 233.7,233.71l97.92 0.01 0 7037.84 -97.92 0c-129.07,0 -233.7,104.66 -233.7,233.71l0 1217.7c0,129.05 104.63,233.71 233.7,233.71l11498.38 0c129.07,0 233.7,-104.66 233.7,-233.71l0 -1217.7c0,-129.05 -104.63,-233.71 -233.7,-233.71l-97.93 0 0 -7037.84 97.93 0zm-233.71 8255.58l-11030.97 0 0 -750.32 11030.97 0 0 750.32zm-8533.82 -6748.7l0 -1506.86 1698.08 -0.01 0 3220.59 -1698.07 1232.95 -0.01 -2946.67 -467.41 0 0.01 3286.05 -1698.11 1232.8 0 -6025.73 1698.11 0 0 1506.86 467.41 0.01zm6929.34 -1506.87l1272.84 0 0 434.36 -9094.87 6603.48 -1272.84 0 0 -434.36 9094.87 -6603.48zm-4763.85 2881.2l0 -2881.2 1698.09 0 0 1648.26 -1698.09 1232.94zm2165.51 -1572.33l0 -1308.87 1705.66 0 0 70.42 -1705.66 1238.45zm3871.18 -296.73l0 6025.71 -1698.11 -0.01 0 -4792.91 1698.11 -1232.79zm-2173.09 1577.68l0 4448.02 -1698.09 0 0 -3215.08 1698.09 -1232.94zm-2165.51 1572.33l0 2875.69 -1698.09 0 0 -1642.73 1698.09 -1232.96zm-2165.5 1572.33l0 1303.36 -1698.07 0 0 -70.42 1698.07 -1232.94zm6835.74 -6201.9l-11030.97 0 0 -750.32 11030.97 0 0 750.32z"/>
 </g>
</svg>
