<svg width="40" height="40" viewBox="0 0 40 40" fill="none" xmlns="http://www.w3.org/2000/svg">
<g clip-path="url(#clip0)">
<path d="M39.3935 13.474C38.5564 10.5928 36.6473 8.20986 34.0182 6.7644C31.3887 5.31895 28.354 4.98365 25.4725 5.82083C24.2043 6.18926 22.9932 6.79237 21.8219 7.37572C19.4144 8.57434 17.1406 9.70638 14.3472 9.0139C12.1357 8.46551 10.0957 8.21624 8.28362 8.27339C5.9636 8.34604 4.09044 8.92818 2.71642 10.0031C0.914086 11.4133 0 13.6372 0 16.6129V22.4048C0 24.7874 0.784588 27.1603 2.20907 29.0861C3.68127 31.0766 5.71889 32.4944 8.10184 33.1866C11.9515 34.3049 15.941 34.8664 19.9315 34.8664C23.0455 34.8664 26.1601 34.5244 29.2082 33.8389C29.5225 33.7681 29.7201 33.4559 29.6493 33.1413C29.5788 32.8269 29.2663 32.6297 28.9519 32.6999C25.9875 33.3668 22.9598 33.6994 19.9315 33.6994C16.0514 33.6991 12.1707 33.1531 8.42771 32.0658C6.29221 31.4453 4.46373 30.1771 3.14778 28.3921C0.869096 25.3012 1.16731 21.5831 1.16731 21.5831C1.46248 22.1823 1.81054 22.7559 2.20907 23.2946C3.68127 25.2847 5.71889 26.7025 8.10184 27.395C11.9679 28.5182 15.9447 29.0797 19.9214 29.0797C23.8979 29.0797 27.8664 28.4897 31.7407 27.395C37.0842 25.8851 38.5932 21.7518 38.6606 21.6169L38.6567 22.9994C38.4038 27.2382 35.4952 30.8802 31.4148 32.0658C31.1054 32.1557 30.9166 32.4828 31.0172 32.7893C31.1884 33.3091 31.6863 33.2027 31.7407 33.1869C36.2996 31.8621 39.5477 27.789 39.8228 23.0514C39.8234 23.0404 39.841 16.8835 39.841 16.8835C39.8675 15.7457 39.72 14.5984 39.3935 13.474ZM37.4274 21.4573C36.1266 23.8104 33.9966 25.524 31.4148 26.2739C23.8954 28.4584 15.9468 28.4584 8.4274 26.2739C6.29221 25.6535 4.46647 24.3831 3.14747 22.6003C1.87043 20.8739 1.16731 18.7475 1.16731 16.6129C1.16731 14.0145 1.93062 12.1 3.43565 10.9223C4.87016 9.80031 6.8333 9.43522 8.78124 9.43522C10.7456 9.43522 12.6866 9.83801 14.0663 10.1469C17.574 10.9311 20.3874 9.39358 22.3421 8.42052C23.5191 7.83474 24.6308 7.28118 25.7984 6.94193C28.3801 6.19169 31.0996 6.49203 33.4558 7.78732C35.812 9.0826 37.5225 11.2178 38.2728 13.7999C38.5387 14.7161 38.6722 15.6493 38.6761 16.5777C38.6755 16.5889 38.8373 18.9065 37.4274 21.4573Z" fill="#4A90E2"/>
<path d="M28.6114 8.56689C26.6945 8.56689 23.8054 9.95672 23.2454 10.2355C21.1905 11.2587 18.8607 12.4187 16.0474 12.4187C15.664 12.4187 14.1322 12.1877 12.7807 11.9834C11.1863 11.7429 9.5378 11.494 8.81401 11.4608C7.02839 11.3791 5.62671 11.8104 4.64909 12.7443C3.98549 13.3778 3.19482 14.5633 3.19482 16.6128C3.19482 18.3598 4.08885 20.212 5.64799 21.6945C5.88145 21.9164 6.2511 21.9073 6.47301 21.6736C6.69522 21.4401 6.6858 21.0708 6.45234 20.8485C5.12392 19.5852 4.36183 18.0415 4.36183 16.6125C4.36183 15.3172 4.73999 14.2715 5.45526 13.5881C6.19334 12.8832 7.30502 12.5591 8.7605 12.6266C9.4235 12.657 11.1146 12.9124 12.6065 13.1376C14.4545 13.4164 15.6081 13.586 16.0474 13.586C19.1352 13.586 21.5954 12.3609 23.7659 11.2803C25.1989 10.5671 27.3277 9.7339 28.6114 9.7339C31.6455 9.7339 34.3567 11.7724 35.2046 14.6907C35.7168 16.4532 35.5119 18.3093 34.6276 19.9177C33.9658 21.1218 32.1644 22.2317 30.6995 22.8691C27.8803 24.0957 24.2541 24.7174 19.921 24.7174C15.0029 24.7174 11.0945 23.8811 8.30544 22.2314C8.0279 22.0675 7.67011 22.1593 7.50595 22.4369C7.3418 22.7144 7.43361 23.0722 7.71114 23.236C10.6829 24.9937 14.791 25.8847 19.921 25.8847C24.4152 25.8847 28.1983 25.2302 31.1652 23.9395C34.23 22.6062 35.3228 21.0762 35.6505 20.4801C36.685 18.5984 36.9248 16.4271 36.3257 14.3651C35.3337 10.9514 32.1617 8.56689 28.6114 8.56689Z" fill="#4A90E2"/>
<path d="M32.6652 16.5222C32.6652 14.4502 30.9796 12.7646 28.908 12.7646C26.836 12.7646 25.1504 14.4502 25.1504 16.5222C25.1504 18.5942 26.836 20.2798 28.908 20.2798C30.9796 20.2798 32.6652 18.5942 32.6652 16.5222ZM26.3177 16.5222C26.3177 15.0938 27.4795 13.932 28.908 13.932C30.3361 13.932 31.4982 15.0938 31.4982 16.5222C31.4982 17.9503 30.3361 19.1125 28.908 19.1125C27.4795 19.1125 26.3177 17.9503 26.3177 16.5222Z" fill="#4A90E2"/>
</g>
<defs>
<clipPath id="clip0">
<rect width="39.8441" height="39.8441" fill="white" transform="translate(0 0.155762)"/>
</clipPath>
</defs>
</svg>
