<?xml version="1.0" encoding="utf-8"?>
<!-- Generator: Adobe Illustrator 24.3.0, SVG Export Plug-In . SVG Version: 6.00 Build 0)  -->
<svg version="1.1" id="Camada_1" xmlns="http://www.w3.org/2000/svg" xmlns:xlink="http://www.w3.org/1999/xlink" x="0px" y="0px"
	 viewBox="0 0 512 512" style="enable-background:new 0 0 512 512;" xml:space="preserve">
<style type="text/css">
	.st0{fill:#4A90E2;}
</style>
<path class="st0" d="M410.3,52.8c6.9-7.3,10.9-16.9,10.9-26.9c0-3.8-3.2-6.9-7-6.9H97.7c-3.8,0-7,3.1-7,6.9c0.1,10,4,19.7,10.9,26.9
	c-26.3,143.1-0.9,364.9,2.7,394.7c-9.1,10.9-14,24.7-13.6,38.8c0.2,3.7,3.3,6.6,7,6.6h316.5c3.7,0,6.8-2.9,7-6.6
	c0.4-14.2-4.5-28-13.6-38.8C411.3,417.8,436.6,195.9,410.3,52.8z M406.2,33c-1,3.9-3.1,7.3-6,10H111.8c-2.9-2.7-5-6.1-6-10H406.2z
	 M115.2,57h281.7c24.8,137.3,1.8,347.7-2.8,386H117.9C113.4,404.7,90.4,194.3,115.2,57L115.2,57z M105.2,479c1-8.1,4.4-15.7,9.6-22
	h282.4c5.3,6.3,8.6,13.9,9.6,22H105.2z"/>
</svg>
