<?xml version="1.0" encoding="UTF-8"?>
<!DOCTYPE svg PUBLIC "-//W3C//DTD SVG 1.1//EN" "http://www.w3.org/Graphics/SVG/1.1/DTD/svg11.dtd">
<!-- Creator: CorelDRAW 2019 (64 Bit) -->
<svg xmlns="http://www.w3.org/2000/svg" xml:space="preserve" width="135mm" height="107mm" version="1.1" style="shape-rendering:geometricPrecision; text-rendering:geometricPrecision; image-rendering:optimizeQuality; fill-rule:evenodd; clip-rule:evenodd"
viewBox="0 0 13487.21 10689.86"
 xmlns:xlink="http://www.w3.org/1999/xlink"
 xmlns:xodm="http://www.corel.com/coreldraw/odm/2003">
 <defs>
  <style type="text/css">
   <![CDATA[
    .fil0 {fill:none}
    .fil1 {fill:#4A90E2}
   ]]>
  </style>
 </defs>
 <g id="Camada_x0020_1">
  <metadata id="CorelCorpID_0Corel-Layer"/>
  <rect class="fil0" width="13487.21" height="10689.86"/>
  <path class="fil1" d="M12649.85 8511.1l-31.78 -136.22c-33.45,-143.5 -32.72,-295 2.2,-438.14 48.87,-200.51 48.69,-414.55 -0.62,-619.3l-1.42 -5.87c-33.52,-139.15 -34.82,-286.53 -3.72,-426.21l18.35 -82.38c40.09,-180.15 42.31,-363.39 6.58,-544.55l-41.42 -209.97c-21.9,-111.1 -23.71,-224.1 -5.34,-335.87l56.66 -344.81c18.42,-111.96 -13.15,-225.82 -86.58,-312.32 -73.46,-86.5 -180.67,-136.14 -294.16,-136.14l-2321.94 -0.01 -31.64 -135.7c-33.46,-143.5 -32.73,-295 2.19,-438.17 48.88,-200.48 48.69,-414.53 -0.56,-618.95l-1.5 -6.23c-33.51,-139.14 -34.81,-286.5 -3.71,-426.2l18.34 -82.41c40.1,-180.18 42.31,-363.39 6.59,-544.5l-41.42 -210c-21.93,-111.08 -23.74,-224.1 -5.34,-335.84l56.69 -344.84c18.39,-111.96 -13.19,-225.82 -86.63,-312.32 -73.45,-86.5 -180.67,-136.11 -294.16,-136.11l-4665.25 0.01 0 381.64 1210.61 0 0 490.14 -267.7 0c-105.38,0 -190.82,85.44 -190.82,190.82 0,105.38 85.44,190.82 190.82,190.82l267.7 -0.01 0 542.25 -825.7 0c-105.38,0 -190.82,85.44 -190.82,190.82 0,105.38 85.44,190.82 190.82,190.82l825.7 -0.01 0 551.53 -267.7 0.01c-105.38,0 -190.82,85.44 -190.82,190.82 0,105.38 85.44,190.81 190.82,190.81l267.7 0 0 480.84 -2201.11 0 11.45 -49.03c47,-201.5 45.93,-414.22 -3.08,-615.24 -34.55,-141.71 -34.27,-293.6 0.84,-439.36l1.47 -6.07c47.08,-195.36 48.85,-402.32 5.22,-598.42l-18.35 -82.44c-28.56,-128.33 -30.14,-258.78 -4.7,-387.78l41.41 -209.97c30.78,-156.01 33.3,-314.69 7.51,-471.62l-56.66 -344.81c-0.18,-1.02 -0.33,-1.94 0.94,-3.44 1.27,-1.5 2.2,-1.5 3.24,-1.5l1001.88 0.02 0 -381.64 -1001.88 0c-113.47,0 -220.69,49.61 -294.16,136.11 -73.46,86.51 -105.03,200.36 -86.63,312.32l56.69 344.84c18.36,111.75 16.55,224.74 -5.35,335.87l-41.41 209.97c-35.73,181.12 -33.51,364.32 6.58,544.5l18.35 82.44c31.08,139.7 29.79,287.06 -3.72,426.28l-1.47 6.06c-49.25,204.5 -49.43,418.54 -0.59,619.02 34.91,143.13 35.65,294.67 2.2,438.14l-31.68 135.73 -1444.81 -0.01 0 381.64 1334.73 -0.01 0 490.15 -267.71 0c-105.38,0 -190.81,85.43 -190.81,190.81 0,105.38 85.43,190.82 190.81,190.82l267.71 0 0 542.25 -825.69 -0.01c-105.38,0 -190.82,85.44 -190.82,190.82 0,105.38 85.44,190.82 190.82,190.82l825.69 0 0 551.53 -267.71 0c-105.38,0 -190.81,85.44 -190.81,190.82 0,105.38 85.43,190.82 190.81,190.82l267.71 0 0 480.85 -2201.11 0 11.42 -49.03c47.03,-201.47 45.95,-414.23 -3.06,-615.25 -34.55,-141.74 -34.27,-293.63 0.82,-439.35l1.47 -6.06c47.08,-195.36 48.87,-402.34 5.22,-598.5l-18.35 -82.35c-28.54,-128.36 -30.12,-258.82 -4.68,-387.81l41.41 -209.97c30.76,-156.01 33.28,-314.67 7.51,-471.59l-56.69 -344.84c-0.16,-1.04 -0.31,-1.94 0.97,-3.44 1.28,-1.5 2.17,-1.5 3.23,-1.5l877.11 0.02 0 -381.64 -877.1 0c-113.49,0 -220.71,49.61 -294.15,136.15 -73.46,86.5 -105,200.35 -86.61,312.31l56.69 344.82c18.37,111.76 16.56,224.75 -5.34,335.86l-41.41 209.97c-35.73,181.13 -33.52,364.32 6.58,544.55l18.34 82.36c31.09,139.7 29.79,287.09 -3.74,426.32l-1.45 6.05c-49.25,204.48 -49.44,418.52 -0.56,619.03 34.91,143.15 35.65,294.67 2.19,438.13l-31.78 136.22c-330.21,10.74 -595.6,282.5 -595.6,615.24l0 1152.4c0,105.38 85.44,190.82 190.82,190.82l12644.67 -0.02c105.38,0 190.82,-85.44 190.82,-190.82l0 -1152.4c0,-332.72 -265.39,-604.5 -595.58,-615.16l-0.01 0.01zm-378.03 -3208.71c1.27,1.5 1.11,2.4 0.94,3.44l-56.69 344.84c-25.78,156.9 -23.25,315.58 7.51,471.59l41.41 209.94c25.45,129.02 23.87,259.51 -4.7,387.81l-18.35 82.4c-43.66,196.15 -41.85,403.11 5.27,598.75l1.42 5.87c35.09,145.65 35.37,297.55 0.82,439.28 -49,200.99 -50.07,413.72 -3.06,615.22l11.42 49.03 -2201.15 0.01 0 -480.85 318.6 -0.01c105.38,0 190.82,-85.44 190.82,-190.82 0,-105.38 -85.44,-190.82 -190.82,-190.82l-318.6 0.01 0 -551.53 876.59 -0.01c105.38,0 190.82,-85.44 190.82,-190.82 0,-105.38 -85.44,-190.82 -190.82,-190.82l-876.59 0.01 0 -542.25 318.6 0c105.38,0 190.82,-85.44 190.82,-190.82 0,-105.38 -85.44,-190.82 -190.82,-190.82l-318.6 0.01 0 -490.14 2211.85 0c1.12,0 2.04,0 3.29,1.47l0.01 0zm-7621.23 2727.33l318.56 0c105.38,0 190.82,-85.44 190.82,-190.82 0,-105.38 -85.44,-190.82 -190.82,-190.82l-318.56 0.01 0 -551.53 876.58 -0.01c105.38,0 190.82,-85.44 190.82,-190.82 0,-105.38 -85.44,-190.82 -190.82,-190.82l-876.58 0.01 0 -542.25 318.56 0c105.38,0 190.82,-85.44 190.82,-190.82 0,-105.38 -85.44,-190.82 -190.82,-190.82l-318.56 0.01 0 -490.14 1566.21 0c-0.23,22.21 0.89,44.52 4.56,66.81l56.69 344.84c18.36,111.72 16.55,224.71 -5.34,335.87l-41.42 209.97c-35.73,181.12 -33.51,364.32 6.58,544.55l18.35 82.36c31.09,139.7 29.79,287.09 -3.72,426.31l-1.47 6.06c-49.25,204.48 -49.46,418.51 -0.59,619.02 34.91,143.16 35.65,294.67 2.2,438.14l-31.65 135.73 -1570.4 -0.01 0 -480.86zm1970.63 -183.39c-34.55,-141.74 -34.27,-293.63 0.84,-439.36l1.47 -6.07c47.08,-195.36 48.85,-402.32 5.22,-598.47l-18.34 -82.36c-28.55,-128.35 -30.13,-258.81 -4.69,-387.8l41.41 -209.97c30.78,-156.07 33.31,-314.72 7.51,-471.59l-56.69 -344.81c-0.18,-1.04 -0.33,-1.94 0.94,-3.44 1.28,-1.5 2.2,-1.5 3.27,-1.5l2211.83 -0.01 0 490.14 -267.7 0c-105.38,0 -190.82,85.44 -190.82,190.82 0,105.38 85.44,190.82 190.82,190.82l267.7 0 0 542.25 -825.69 0c-105.38,0 -190.82,85.44 -190.82,190.82 0,105.38 85.44,190.82 190.82,190.82l825.69 -0.01 0 551.53 -267.7 0c-105.38,0 -190.82,85.44 -190.82,190.82 0,105.38 85.44,190.82 190.82,190.82l267.7 0 0 480.84 -2201.11 0 11.45 -49.02c46.95,-201.48 45.9,-414.23 -3.11,-615.25l0 0.01zm2574.38 -2545.42l479.53 0 0 3209.67 -479.53 0 0 -3209.67zm373.16 -3589.79c1.27,1.5 1.12,2.39 0.95,3.43l-56.69 344.85c-25.81,156.93 -23.26,315.58 7.5,471.56l41.42 210c25.45,128.99 23.87,259.48 -4.69,387.79l-18.34 82.41c-43.66,196.13 -41.85,403.08 5.19,598.36l1.51 6.23c35.09,145.68 35.37,297.57 0.81,439.28 -49,200.99 -50.06,413.74 -3.08,615.24l11.43 49 -2201.12 -0.02 0 -480.84 318.59 0c105.38,0 190.81,-85.44 190.81,-190.82 0,-105.38 -85.43,-190.82 -190.81,-190.82l-318.59 0.01 0 -551.53 876.58 -0.01c105.38,0 190.82,-85.44 190.82,-190.82 0,-105.38 -85.44,-190.82 -190.82,-190.82l-876.58 0.01 0 -542.25 318.59 0c105.38,0 190.81,-85.44 190.81,-190.82 0,-105.38 -85.43,-190.82 -190.81,-190.82l-318.59 0.01 0 -490.14 2211.85 0c1.07,0 1.98,0 3.26,1.5zm-3076.24 -1.5l479.53 0 0 3209.66 -479.53 -0.01 0 -3209.65zm-2703.09 3591.28l479.54 0 0 3209.67 -479.54 0 0 -3209.67zm9074.38 4786.9l-12263.04 0 0 -961.58c0,-129.04 104.97,-234.04 234.04,-234.04l130.95 0c0.23,0 0.44,0.03 0.67,0.03 0.15,0 0.28,-0.03 0.43,-0.03l11662.94 0c129.04,0 234.04,104.98 234.04,234.04l0 961.58 -0.02 0z"/>
 </g>
</svg>
